<svg fill="none" viewBox="0 0 15 15" xmlns="http://www.w3.org/2000/svg"><path d="M.979.356.02.644 3.128 11H15V4.5A2.5 2.5 0 0 0 12.5 2H1.472L.979.356Z" fill="#37bf4e" class="fill-000000" data-darkreader-inline-fill="" style="--darkreader-inline-fill: #44bc58;"></path><path clip-rule="evenodd" d="M5.5 12a1.5 1.5 0 1 0 0 3 1.5 1.5 0 0 0 0-3ZM5 13.5a.5.5 0 1 1 1 0 .5.5 0 0 1-1 0ZM12.5 12a1.5 1.5 0 1 0 0 3 1.5 1.5 0 0 0 0-3Zm-.5 1.5a.5.5 0 1 1 1 0 .5.5 0 0 1-1 0Z" fill="#37bf4e" fill-rule="evenodd" class="fill-000000" data-darkreader-inline-fill="" style="--darkreader-inline-fill: #44bc58;"></path></svg>