<?xml version="1.0" encoding="UTF-8" standalone="no"?>
<!-- Created with Inkscape (http://www.inkscape.org/) -->
<svg xmlns:rdf="http://www.w3.org/1999/02/22-rdf-syntax-ns#" xmlns="http://www.w3.org/2000/svg" xmlns:cc="http://web.resource.org/cc/" xmlns:dc="http://purl.org/dc/elements/1.1/" xmlns:svg="http://www.w3.org/2000/svg" xmlns:inkscape="http://www.inkscape.org/namespaces/inkscape" xmlns:sodipodi="http://sodipodi.sourceforge.net/DTD/sodipodi-0.dtd" xmlns:ns1="http://sozi.baierouge.fr" xmlns:xlink="http://www.w3.org/1999/xlink" id="svg2" viewBox="0 0 353 480" version="1.0" inkscape:version="0.91 r13725">
  <path id="path1922" style="fill:black" d="m138 473c0.48-5.37-9.13 4.06-7.4-0.45 1.63-1.94 8.18-3.87 6.69-6.15-3.16 0.24 2.84-1.28 4.12-0.59 1.17-4.54-7.57-0.29-3.89-5.26 1.07-1.92 5.32-10.26 0.93-5.32 0.09 2.99-4.11 2.81-1.46 0.06 0.35-1.18 3.9-3.82 2.18-3.99-2.21 0.14-6.19-1.01-6.96 1.08 1.1 1.28 6.79-1.65 3.96 0.91-2.09 1.29-4.51 8.6-4.31 2.58-1-3.06-9.25-2.8-10.84 0.62-1.36 3-0.83 1.14-0.3-0.96-1.07-2.79-5.65-1.1-8.33-1.53-1.29-0.35-4.01 0.72-4.39-0.54 0.39-3.04-0.2-6.74-4.38-5.46-3.52-0.97-6.171 3.33-8.65 1.82-2.717 2.16 5.27 3.13 0.277 3.95-3.582 0.69-7.537 1.31-5.452-3.78-0.333-2.88 4.96-7.09 2.593-1.86-3.291 1.52 0.293 7.94 0.612 2.39-0.811-4.12 8.68-3.36 6.771-6.52-2.192 0.18-3.322 3.01-4.614 0.53-3.739-0.9-6.72 0.82-7.731 4.23-0.431-4.99 4.048-6.91 7.576-8.83 0.364-2.44 5.928-7.16 2.358-2.44-4.446 5.24 4.73 5.09 7.54 3.08 1.6-1.37 1.72-1.35 1.69 0.23 3.67 0.01 7.42-1.19 8.42-4.69 4.61-0.42-4.35 5.38-0.12 7.86 1.58 1.12 2.76 4.62 4.72 2.49-3.81-1.48-2.48-4.65 0.39-5.38 2.53-3.24 10.04-6.15 6.81-11.22-1.65-1.09 3.58-2.56 3.22-5.11 0.56-1.79 2.4-4.82 2.03-0.8 2.31 2.35 2.53-9.5 2.77-2.45 1.2 3.34-3.15 10.13 0.36 11.32 1.98-1.89 4.21-3.14 2.94 0.83-0.74 6.84 8.25-6.84 4.69 0.14-2.23 2.7-4.35 8.32-5.43 9.99 3.56-3.15 1.53-0.37 1.22 2.11 4.05 1.75-6.94 1.38-6.17 4.05 2.37 0.09 5.3-2.47 6.12-0.33 0.86-3.8 3.02 3.07 3.08-1.11 0.76-1.91 2.06-4.93-0.24-6.05 3.09-1.94 7.21 2.4 10.4-1.19 2.41 0.41 4.91-1.92 5.12 2.13 1.72 1.41 4.94 0.7 4.58 4.27 2.29 3.6 8.78 1 12.33 0.41 0.98-5 4.5 1.35 2.47 3.74-1.37 2.2-0.71 7.94 1.15 2.99 0.01-3.26 6.37-2.2 8.4-4.9 4.44 1.48-2.75 1.78-4.2 3.65-2.86 1.43 0.03 0.92 1.68 0.83 3.13 0.03 6.61-1.11 9.44 0.36-0.09 3.94-2.43 2.44-3.84 0.36-4.32 2.31-9.6 0.67-13.63 3.98-0.78 1.92 6.9-1.12 3.94 2.18-5.49 1.94 5.33 3.42 1.26-0.18 0.52-2.76 6.46-4.32 2.71-0.54 0.6 1.12 8.71-6.76 4.19-1.15-2.42 2.2-4.87 4.39-1.63 4.13-1.56 1.72-2.28 3.43 0.1 1.02-0.53-3.37 5.89-5.9 6.95-2.78-1.14 2.6-5.97-2.37-3.33 1.48 3.72 2.67 7.29-2.28 10.03-2.25 1.99 3.57-6.77 2.99-1.79 4.97 2.77-0.24 3.66 0.77 0.52 1.34-5.08 1.27-10.5 1.13-15.35 3.24-3.37 0.18-9.63 1.78-11.47-0.49 2.05-0.83 2.22-4.07 5.43-3.3-2.85-2.72-5.99-0.32-7.73 1.64 0.78-5.56-4.55 1.21-7.03 1.22-3.47 3.04-8.08 3.44-11.91 5.36-3.27-0.05 5.28-4.3-0.56-3.93-4.41-1.39-8.01 3.69-11.45 3.36l-0.14-0.58-0.04-0.82zm6.27-3c4.41-4.27-9.92-0.85-4.43-0.26 2.46-1.01 3.73-0.42 1.56 1.8 0.22 1.49 2.51-1.23 2.87-1.54zm15.36-0.7c0.67-1.64 3.55-5.98-0.31-3.17-1.87-0.47-4.66 1.13-2.82 2.57 2.36-4.13 1.38 2.17-0.32 3.06 1.14-0.5 3.26-1.11 3.45-2.46zm-4.7-3.55c0.28-2.34-0.49-4.66-1.64-1.13-1.95 0.93-1.51 2.31-2.23 3.38-0.84-0.89-2.72-2.85-2.22-0.01 2.57 3.07 7.39 2.81 6.09-2.24zm26.32 3.54c-1.22-0.7-4.71-3.27-3.11-0.18 0.7 1.03 7.17 0.88 3.11 0.18zm-33.6-3.83c1.65-5.54-4.84 2.89-0.73 1.09l0.42-0.49 0.31-0.6zm19.74-1.04c0.45-3.95-4.53 3.05-0.71 1.11l0.4-0.5 0.31-0.61zm-21.36-2.86c3.12-3.17-4.12 0.81-0.58-2.8 1.78-1.61 1.79-5.03-0.48-1.9-1 1.84-5.76 2.21-4.54 4.64 1.75-2.29 2.78-2.95 1.66 0.45 0 1.41 2.57-0.18 2.19 1.97 0.57-0.8 1.16-1.58 1.75-2.36zm4.57-1.29c-1.93 1.48 1.12 4.07 0 0zm10.03 1.52c0.73-2.07 2.27-6.58-0.86-4.43-1.03 0.94 0.46 5.78-2.43 5.45 1.16 0.22 2.56 0.02 3.29-1.02zm11.37-0.35c-2.72-2.22-2.45 3.96 0 0zm-17.46-1.37c-0.31-1.3 3.19-5.09-0.16-2.88-2.47 0.75 0.56 6.06 0.16 2.88zm12.39-1.48c1.59-2.37-1.16-2.65-1.26-0.36-3.18-0.45 0.28 3.47 1.26 0.36zm-16.19-1.83c-0.6-4.75-1.7 5.35-0.07 0.81l0.07-0.81zm23.03 0.43c-0.05-1.87-4.55 0.81-1.33-1.61 3.66-3.45-4.87-0.26-1.41 2.69 0.93 1.1 2.47 0.03 2.74-1.08zm-8.79-3c0.26-2.8-3.09 3.05-2.07-1.51-3.86-1.33 1.99 7.82 2.07 1.51zm-20.38-0.34c1.43-1.54 2.54-2.8 0.07-0.98-1.65 0.65-5.58 4.2-1.67 2.5 0.58-0.46 1.11-0.97 1.6-1.52zm11.17-1.66c-1.19-2.92-4.59 3.72-0.64 0.97l0.38-0.45 0.26-0.52zm15.73-0.11c2.12 1.02 6.17-3.44 3.74-3.6-0.88 1.26-2.11 2.94-2.7 0.93-2.11 0.23-5.23 6.68-1.96 3.09l0.92-0.42zm-54.5-0.58c-2.09-5.58-1.99 5.47 0 0zm5.5 0.5c-1.46-3.77-4.38 3.39 0 0zm27.5-0.06c-1.54-2.12-2.55 2.88-0.08 0.41l0.08-0.41zm-37.02-2.25c-0.58-1.23-2.67 3.32-1.81-0.5 1.28-1.16 6.34-3.81 1.68-4.01-5.41-0.71-3.37 9.08 0.07 5.18l0.06-0.67zm16.41 1.54c-2.33-3.54 1.7-9.49-0.66-12.24-1.91 1.05-1.04 3.98-2.28 4.6 2.07 1.04 1.5 1.55-0.45 1.6 4.48 1.27-3.78 4.87 0.78 6.64 0.41 0.08 3.78 0.56 2.61-0.6zm17.83-2.78c3.18-3.76 2.28-0.75 1.48 1.52 5.64-1.27 1.82-6.01-2.26-5.3-2.2 0.79-3.21 3.65-0.41 0.92 3.3-0.03-5.26 5.05-0.82 5.03 0.78-0.62 1.39-1.41 2.01-2.17zm7.78 0.99c-2.72-2.22-2.45 3.96 0 0zm-32-1.5c-1.54-2.12-2.55 2.88-0.08 0.41l0.08-0.41zm32.97-4.31c-3.06-1.02-3.83 7.25-0.93 1.99 0.36-0.63 0.81-1.26 0.93-1.99zm3.03 3.31c-1.54-2.12-2.55 2.88-0.08 0.41l0.08-0.41zm-49.94-1.51c1.9-3.95-12.108 1.02-4.23 1.57 1.5-0.11 3.15-0.44 4.23-1.57zm13.94-1.43c-1.29-3.12-6.04 1.86-1.26 0.92 0.47-0.12 1.19-0.31 1.26-0.92zm11 0c-2.47-3.85-2.49 3.77 0 0zm-22.48-2.04c-0.27-1.87-8.59 1.47-3.25 1.04 1.11-0.07 2.46-0.15 3.25-1.04zm12.51-2.46c2.91-4.67-4.56 4.37-1.12 1.53l0.53-0.72 0.59-0.81zm9.16-0.18c-4.94-0.99 0.98 2.08 0 0zm-5.19-2.38c-1.54-2.12-2.55 2.88-0.08 0.41l0.08-0.41zm3.59-1.68c-2.8-1.04-3.31 4.62-0.51 1.19 0.19-0.32 0.75-0.74 0.51-1.19zm3.22 0.21c-2.14 0.52-1.56 4.22 0.03 0.76l0.09-0.44-0.12-0.32zm-4.39-5.39c-1.66-0.66-2.68 6.25-2.09 4.72 0.76-1.5 2.09-2.99 2.09-4.72zm2.58-2.05c-1.17-4.25-4.02 1.92-0.2 1.7 0.24-0.53 0.17-1.14 0.2-1.7zm-8 44.18c0.87-1.77 3.06-3.84-0.67-3.26-2.76-1.03-4.38-0.81-5.21 1.92-3.16 0.93-3.23-2.95-0.33-3.25-6.4-2.75 7.41 0.87 4.2-4.08-2.55 0.23-5.5-2.08-7.04-1.38-2.39 3.23-5.08 6.8-8.69 8.54 0.41-2.05 1.45-6.58-1.73-3.04-0.59 1.94-5.954 5.41-3.94 1.07 3.16-4.24 9.92-2.26 12.68-7.11 3.16-3.17 9.18 3.71 12.49-0.7 0.51-1.86 2.97-6.63 1.78-1.65-0.27 2.99-8.2 9.58-1.29 8.54 4.78 1.39 2.63-7.15 5.16-6.22-1.47 3.02 3.61 7.13-1.83 7.28-2.01 0.52-3.21 4.19-5.58 3.34zm40.28-0.54c1.24-3.12 6.18-0.5 1.66 0.63-0.46 0.18-2.05 0.43-1.66-0.63zm-79.067-3.42c0.543-2.71 5.607-0.16 2.128-3.13 0.63-3.34 7.637-0.54 7.497-5.51-2.254-0.08-3.664 0.56-0.709-1.02 4.971-1.56 2.343 2.65 0.142 4.14-1.289 1.74 5.309 1.82 6.469 0.56 0.63-1.07 1.31-4.53 2.7-1.82 3.95-2.4 1.88 4.23 0.58 2.78-2.3-2.96-6.157 4.5-9.228 5.12-2.734 1.29-3.16-0.03-0.37-0.91 5.198-4.64-5.09-1.32-6.553 0.93-1.078 0.79-3.276 0.8-2.656-1.14zm25.237-8.01c1.27-2.01 7.42-6.38 3.12-1.94-1.24 1.25-7.71 6.99-3.54 2.39l0.42-0.45zm93.05 1.7c1.84-0.27 8.27-1.66 7.6-0.2-3.67 1.51-7.73 0.98-11.6 1.03 1.33-0.28 2.67-0.55 4-0.83zm-69.8-1.27c0.21-3.69 3.3 1.58 0.45 0.94l-0.45-0.94zm-13.7-1.11c2.07-3.61 2.71 1.87 0 0zm74-1.06c7-6.01-2.06 5.58 0 0zm6 0.92c1.65-2.19 8.91-2.7 3.05-0.59-0.95 0.24-2.08 0.87-3.05 0.59zm-96-1.31c1.14-2.46 4.34-1.9 1.1 0.38-0.33 0.77-1.43 0.5-1.1-0.38zm75.73-0.23c5.06-2.93-2 3.16 0 0zm-95.73-1.88c2.958-2.62 3.51 1.08 0.191 0.98-1.371 0.27-1.329-0.55-0.191-0.98zm114 0.11c1.46-1.21 7.3-4.17 7.81-1.79-2.66 0.46-5.22 1.84-7.53 2.46l-0.2-0.28-0.08-0.39zm10.25-0.91c3-1.4 9.89-1.97 11.25 0.93-2.79 0.35-10.39 1.68-11.25-0.93zm-110.25-2.36c1.57-1.91 10.4-0.32 4.13 0.57-1.28-0.01-3.19 0.45-4.13-0.57zm-14-0.78c2.577-5.53 0.952 3.45 0 0zm-10.371-5.54c0.932-2.82 5.535-0.92 1.394 0.47-0.578 0.55-2.279 1-1.394-0.47zm90.371-0.02c1.93-1.5 5.67-1.78 1.48 0.29-1.49 1.14-4.91 1.52-1.48-0.29zm6-1.53c1.2-2.35 4.85 0.09 0.92 0.54-0.35 0.07-0.94-0.07-0.92-0.54zm-102-2.38c0.902-2.6 4.933-2.34 1.5-0.23-0.432 0.07-1.076 0.53-1.5 0.23zm-2.965-1.15c-0.094-2.79 4.684-7.15 2.003-1.87-0.284 0.29-1.482 2.62-2.003 1.87zm76.885-3.14c1.54-2.44 5.08-9.02 1.08-9.18 2.03-1.42 2.76-7.06 5.41-6.22 1.61 4.42-3.13 8.07-3.58 12.57-0.03 2.07-4.21 5.81-4.64 5.19 0.57-0.78 1.15-1.57 1.73-2.36zm-61.31 0.88c-1.292-2.72 1.885-5.64 1.99-1.22 0.127 1.05-1.156 2.74-1.99 1.22zm16.926-0.12c-0.101-1.64 2.504-2.5 2.174-3.95 1.82 0.19 5.89 1.87 1.86 2.33-1.29 0.28-2.686 3.06-4.034 1.62zm-38.164-4.75c0.061-1.33 0.779-3.95 0.447-4.51-2.042 1.75-3.72 4.15-6.272 5.14-1.518-2.78 5.185-3.17 6.009-6.18 2.123-3.15 3.87-5.48 7.182-7.07 2.163-2.6 6.601-5.45 8.542-6.35-2.605 4.22-8.387 6.93-8.076 12.59-0.255 4.35 4.985-0.97 5.419-0.73 1.244-2.77 5.258-5.63 4.88-8.67 1.829 4.12-2.45 8.87-2.958 12.23-1.344-4.3-9.611 2.92-4.884 1.11 2.743-2.46-1.272 4.78-2.765 1.33-1.457 3.7-4.782 0.35-6.8 3.73 3.841-2.05 2.178 1.42-0.128 2.08-1.442-0.83-0.59-3.36-0.596-4.7zm6.486-5.8c1.239-1.96 1.247-6.56-1.578-2.79-2.521 1.51-5.189 11.27-0.366 6.28 0.828-1.05 1.482-2.23 1.944-3.49zm43.632 7.5c1.1-1.81 5.16-3.59 2.09-0.51-1.45 2.06-6.62 5.16-2.65 1.11l0.56-0.6zm46.65 0.63c3.16-5.26 0.34 3.7-0.66 1.53l0.27-0.65 0.39-0.88zm58.86 0.38c2-0.88 5.8-6.32 6.8-4.7-2.59 2.92-0.24 4.98 2.86 2.78 1.74-2.2 7.18-2.95 3.12 0.77-1.9 2.37 4.99 0.12 6.01-0.67 1.03-0.51 2.12-6.59 2.09-3.34-0.93 4.29 3.38 3.94 5.11 1.21 3.69 0.67-0.29-6.25 3.44-2.32 2.9 1.07-0.69-4.85 2.75-1.33 3.37-0.32-0.34-4.48-1.68-5.92 1.39 1.5 6.47 5.34 5.54 1.15-1.76-2.33-1.82-2.47 0.63-0.77 2.82-2.27-0.41-4.44-1.2-6.37 5.04 0.3-5.25-10.34-2.07-4.35 2.56 4.29-3.98 8.11-7.18 10.05-1.22-1.8 3.14-4.97 4.66-5.31 0.08-4.47 0.66-9.14 2.31-13.66 2.56-4.68-6.89-7.39-8.35-3.23-0.27 2.9-3.34 8.03 0.12 7.93-1.2 2.13-2.93 4.36-2.86 6.57-3.71 0.59-3.37 7.55-8.19 8.21-3.12 0.47-3.56 6.95-6.91 5.34 0.21-5.81 7.25-5.95 10.11-9.66 3.6-6.25 5.3-13.54 5.89-20.68-0.9-3.09-4.38 4.11-7.04 3.87-2.69 4.5-8.5 4.64-12.56 7.51-3.88 1.44-7.12 3.43-10.85 4.87-4.08 0.96-8.03 2.63-12.53 2.22-6.31-0.01-12.75 0.74-18.98-0.51-3.74-1.53-3.56-5.16 0.18-6.09 1.21-1.91 7.63-6.84 4.06-1.82-1.77 0.96-6.79 8.01-1.93 5.28 0.74-2.69 2.95-2.21 2.07 0.44 4.24 1.72 9.01-0.04 10.41-4.6 0.51-2.33 5.97-3.82 2.95-0.63-3.2 1.93-3.16 8.26 1.58 4.83 2.3-1.76 3.98-1.59 5.76-4.15 3.17-2.46-0.71 4.03 3.35 2.22 3.59-0.43 4.93-2.92 6.21-5.5 1.38 2.8 1.36-1.11 3.4-0.83-0.35-2.49 0.46-5.63 1.96-1.58 1.81 3.76-1.65-6.89 2.25-3.51 2.67 4.63 7.12-4.3 10.46 1.11-0.77-2.38 3.62-2.95 0.87-5.34 2.04 0.54 7.4 1.88 3.03-1.04-2.94-1.35-5.99 1.86-8.33 2.18-0.27 4.62-10.02 2.5-4.5-1.89 0.72-3.67 5.48 0.63 4.41-3.59-1.52-0.86-5.31-4.98-1.03-2.69 3.23 2.74 10.17 2.43 12.49 0.24-1.96-0.75-8.52 1.45-7.5-1.29 3.06-0.19 7.83 0.45 7.14-2.48 2.06-1.29 6.84-0.61 3.06 1.8 2.63-0.1 6.33-1.73 2.9-3.67 3.25-0.01 0.72-2.87-1.2-2.37 1.43-1.79 5.48-4.33 4.63-0.48 2.51 1.3 0.33-7.95-2.98-4.32-4.6 3.85-5.04-8.59-1.72-4.32-1.24-4.84 2.7-7.54 6.59-8.51 1.33-2.39 0.87-8.77 2.25-9.23-0.71 4.24 2.29 2.74 4.13 0.74 6 0.39-3.62-8.5 0.33-7.77 0.05 3.62 3.01 2.08 4.66 4.05 2.77-1.52 2.08-4.92-1.16-2.63-2.81 1-1.89-2.84 0.35-1.87 0.88-1.42-2.85-6.6 0.31-6.94 5.28 6.27-3.04-5.94 2.95-5.95 3.45-0.14 4.74-3.69 0.95-4.08 0.95-2.68-2.59-5.22 1.11-6.01 1.17-2.92 0.15-9.08-3.92-5.78-2.94 0.8-1.85-2.26 0.24-0.81-0.3-2.92-5.93 0.32-2.15-2.96 1.27-0.85 5.43 3.06 3.87-0.67-2.8-2.85-5.14-7.84-8.33-9.26-1.17 1.67-3.76-2.47-3.47 1.54-3.17-0.7-5.69 5.78-7.7 2.6-1.23 1.52-2.47 7.34-4.23 2.6-0.37-3.97-5.15-3.63-8.28-4.65-4.99-0.2-8.1-4.84-11.17-8.21-1.23-3.38-3.93-5.54-6.07-8.42-0.85-2.24-2.52 0.33-3.83 0.82-4.39 2.84-8.75 5.89-13.67 7.67-4.26 2.9-9.87 1.87-14.77 2.44-4.28-1-7.54 3.63-11.07 0.15-1.78-1.78-6.97-7.94-6.94-1.89-1.03 5.98-3.72-3.47-2.51-5.69 0.54-2.82-2.64-6.66-2.53-8.25 2.28 4.21 7.57 2.88 11.07 4.36 4.92-0.92 9.81-2.51 13.71-5.72 1.74-1.34 4.77-1.71 1.35 0.34-2.16 0.84-3.5 3.67-0.14 1.61 3.71-0.49 3.67-6.2-0.23-4.33-3.73 3.34-7.25-1.74-8.94-4.77-0.48-1.37-3.03-3.01-0.98-4.05 1.97-1.74 3.73-3.84 6.08-5.05-1.03 2.8-1.94 4.45-4.7 5.96-0.28 3.29 3.51 1.6 4.48 0.68 4.55 1.16 7.27-3.44 10.28-6.02 2.06-1.18-0.97-2.46-1.66-3.7-0.66-2.95-8.03-2.14-6.05-4.5 4.44 0.61-3.11-5.68-3.74-7.72-0.64-3.83-4.19-7.54-6.51-2.5-4.37 5.2-9.53 9.74-13.56 15.22-3.67 2.41-6.12 7.72-4.91 10.85-0.87-1.41-1.22-5.05-2.95-2.28-3 1.82-2.93 6.27-6.69 6.61-1.17 2.27 1.26 7.52 0.62 8.61-0.36-3.72 2.61-5.06 3.16-1.86 1.06-2.99-0.33-8.18 0.9-9.9 3.11 3.51 5.2 7.94 7.6 12-0.97 3.39-1.52 7.45 2.39 9.79 1.94 1.52 2.21 2.2-0.45 1.42-5.2-1.72 0.73 3.7-2.42 5.99-1.13 1.8-0.52 2.64 1.19 1.56-1.31 1.72-1.45 3.92-2.23 4.68 3.01-2.18 7.85 2.53 2.72 2.7-3.41-3.99-2.96 4.51 0.69 1.72 1.03 0.29-5.6 6.81 0 4.96 0.88 0.67-5.26 5.89 0.06 4.68 4.23-0.34-4.22 8.33 1.16 4.5 1.28 1.31 0.34 5.45 4.01 4.98-2.44 5.4 7.14 0.86 5.3 5.98-2.01 2.26-0.97 4.62 1.36 4.46 0.13 2.29 2.99 2.66 1.75 5.41 2.69-1.03 1.64 0.89 1.71 1.55 3.2-2.73 5.01 0.11 2.76 2.48 2.69 1.32 5.81-7.58 4.21-1.11-1.8 2.24 0.59 3.66 0.17 6.02 2.56 0.24 6.22-0.45 4.66 3.48 3.28-1.13 7.47 0.95 3.2 3.19 2-0.42 8.59 4.23 6.59 0.61-2.87-1.78-3.64-5.88 0.4-6.82 1.51-2.56 3.88-5.61 4.38-8.25-2.42 1.28-3.73 4.75-6.34 3.23-2.79 0.61 2.73 2.97-1.35 2.24-4.25-2.59 8.45-4.33 3.41-5.77-2.28 3.98-6.41-0.98-3.71-2.62 4.82 3.51 7.27-1.7 10.72-4.27 2.15-2.52 0.56-7.02-2.49-3.25 1.81-2.43 1.99-4.92 2.87-7.34 0.43-2.23 0.67-2.65 3-3.27-0.23-4.27-6.14 3.22-4.46-1.29-3.76-2.65 6.1-0.82 7.84-2.04 3.1 0.55 6.28-5.48 1.65-2.47-2.39 1.5-8.71 2.89-10.38 0.58 2.24-2.29 0.43-1.67-1.32-1.31 1.67-3.71 5.3-4.64 6.64-7.72-0.08-4.81-7.96 5.91-6.98 1.6 3.18-3.07 7.3-4.83 8.88-9.06-3.58-1.83 2.54-5.97 0.25-1.04 1.09-0.03 4.17-3.18 4.72 0.65 0.75 2.98 6.38-5.64 6.37-2.48-5.03 1.83 1.27 4.11 1.31 5.34-2.54 2.29-7.53 3.43-8.2-0.11-1.76 0.6-3.84 2.64-1.44-0.21 2.43-6.82-9.72 4.7-1.65 3.31 2.44-0.78 5.23 0.09 2.08 2.14-1.81 2.43-9.27 3.57-7.36 6.91 2.5 1.34 6.96-1.61 2.71-0.4-2.23-4.6 4.78-2.68 5.52-1.11-3.11-4.78 8.14-2.01 2.72 0.36-2.21 3.26 4.41 2.83 2.24 0.17 1.55-1.44 5.63-2.59 1.92-0.23-2.48 1.5 3.26 0.68-0.36 2.18-3.51 2.22-8.68 2.59-10.94 6.29-1.2 2.45 0.94 7.56 1.37 3.55 0.39-0.56 2.63-6.01 3.02-2.51-0.54 1.92-0.87 8.93 1.26 3.9 1.71-3.72 1.28-10.39 7.27-8.52 1.14 1.92-4.42 6.37-2.06 1.64-3.51-0.63-0.86 6.41-3.36 8.41 1.93-2.23 4.35-0.94 0.96 0.55-2.66 0.72-2.98 3.28-1.54 4.29-3.06 2.52 3.49 3.1-0.11 5.85 3.26 2.9-3.34 6.73-3.12 10.57-1.98 3.58 2.9 7.56 1.97 11.86 2.55 1.53 1.23 10.77 5.44 7.39-0.51 2.89 3.68 6.11 2.81 7.9-2.77-1.82-5.95-8.39-7.87-2.24-2.72 5.01-7.55 8.5-10.3 13.43-2.13 3.89-8.72 4.23-13.05 4.63-1.81 0.35-9.26 2.26-4.15-0.12 5.84-1.91 12.59-2.39 16.9-7.34 2.77-2.25 9.19-8.42 1.72-7.98-0.89-3.45-4.69-0.96-6.05 0.74-3.57 2.46 3.13 0.03 4.17 0.3 0.37 3.43-7.4 2.58-8.06 1.36 1.79-2.65-3.38-6.81-5.93-4.64-1.52-2.93 8.18-4.79 5.39-6.43-2.23-0.44-3.83 3.36-5.21-0.01 1.6 4.64-5.02 4.96-6 7.42 2.15 2.28 4.78-3.51 5.51 0.3 1.75-0.34 6.57-0.73 2.62 1.42-3.53 2.97-4.83-2.44-8.48 0.8-1.56 1.97-5.34 2.65-1.6 0.11 1.86-2.35-3.58-0.33-3.68 1.47-4.34 1.27-0.38-0.83 0.53-2.57-1.72-0.81-4.34 0.7-1.39-2.08 1.12-0.26 5.12 2.2 4.97-0.46-4.56-0.94 1.25-1.71-1.46-4.12-1.82-3.22-7.32 0.55-6.18-4.45-2.2-0.77-3.03-1.61-2.61-4.02-2.05-0.42-2.81 4.95-6.25 2.49-0.97-0.02 1.26 2.42-1.73 2.36-1.32 0.54-5.55 1.34-2.62 2.67-3.86 1.82-8.57 2.87-12.8 2.15 2.16-0.71 8.63-0.45 7.99-3.31-1.72-0.87-8.09-0.26-5.49-2.97-4.33-1.31-5.47 2.4-9.68 2.5-1.02 0.04-5.54 3.91-3.34 1.59 2.22-1.97 3.23-4.62 5.15-6.73 1.21-1.02 5.06-5.73 4.06-1.87 3.86 0.22 8.61-3.34 12.09-1.49 0.31-2.11 1.14-3.53-1.59-4.76 0.12-3.49 3.92 0.25 4.56 0.95 1.59-1.58 1.49-3.45-0.25-3.25-0.04-4.3-5.74-1.88-7.97-0.74-3.75 0.12-2.98 3.31 0.39 2.64 0.97 0.84 0.65 2.44 2.75 2.24-3.76 2.6-8.66-0.31-12.41 2.7-3.04 2.05-4.13 5.96-8.8 5.3-2.75-0.06-4.47-2.57-6.36 0.68-3.04-2.31 6.28-3.51 0.48-4.21-1.86-0.34-6.67 4.48-4.16-0.16 4.48-2.96 0.88-10.52 5.4-12.45 2.57-0.93 2.79-4.69 6.54-3.28 4.18 2.17 4.33-6.74 0.87-2.59-4.11 2.19-9.44 0.05-12.86 3.5-1.39 4.15-3.24 8.14-5.3 12.05-0.58 1.95-3.86 4.33-2.01 0.65 1.2-2.06 3.58-6.16 2-7.83-1.85 4.43-3.21 8.87-7.88 11.05-2.71 2.96-6.53 1.66-8.94 2.62-1.25 1.62-4.368 2.27-1.33 0 2.15-2.79 8.16-0.87 8.41-4.91-4.5-2.52-9.18 1.09-13.23 1.45 3.09-2.9 6.23-6.11 6.23-10.67-2.522-0.46-0.34 6.23-3.292 1.78-3.475-4.35 2.882 6.84-2.505 6.56 1.087-2.86-1.303-5.25-4.044-3.05-0.876-1.65 3.732-9.7-0.166-5.51-1.683 3.29-5.192 3.14-6.924 0.44-2.57 0.31 3.855-6.94-0.496-8.44-1.365 1.39 1.044 3.43-2 2.77-2.58 1.3-2.217 7.89 0.276 3.11 2.458-1.7-2.154 6.51-2.524 2.42-1.718 1.81-3.316 3.71-1.889-0.09 1.89-8.89 1.44-18.04 1.853-27.06 0.256-2.14 1.029 4.06 1.455-0.21 1.12-7.29 2.436-14.57 4.576-21.64 0.722-2.16-2.293-4.73-1.032-1.14-0.215 2.13-1.139 4.15-2.137 2.12-2.675 3.37-2.555 8.22-3.575 12.3-0.882 6.43-2.276 12.97-1.612 19.47 1.097 1.51 0.071 6.94-0.222 2.33-1.41-1.4-2.124-3.46-2.368-5.18-0.688 1.31-2.564 7.99 0.248 3.91-0.971 2.88 0.049 7.01-3.871 6.77-2.172 5.1 9.635-2.93 6.267 4.73-1.838 6.34-0.326-5.92-3.28-1.2-1.001 2.99-2.474 5.7-4.185 1.5-2.328-1.98 0.022-10.68-4.436-5.73-1.05 1.51-7.445 6.21-3.916 1.6 1.313-1.96 1.18-9.56 3.467-4.87 4.329-0.09 0.182-3.32-0.418-3.68 1.971-3.72 1.033-8.22 1.658-12.29 0.579-4.96 0.361-10.22 2.013-14.94 1.602 2.4-0.851 7.96 0.385 9.12 0.785-2.06 3.212-6.01 1.738-1.5-2.038 6.87-4.323 14.37-2.242 21.5 1.494 4.24 5.445 1.63 4.059-2.04 0.306-9.97 1.947-19.91 1.532-29.89-3.184-1.97 3.765-9.2-1.399-7.6-1.488 2.1-5.702 5.59-3.79 0.48 0.392-2.43 1.935-4.97 3.481-2.33-0.262-2.65 3.962-0.19 2.307-3.62 1.45-1.96 2.942-5.69 3.519-6.77 2.33 0.32 2.535-1.77 0.036-1.06-1.894-4.15 5.792-1.78 6.995-3.92 2.401-2.01 0.141-3.46-1.792-1.87-1.298-0.28-3.974 2.97-2.114-0.28 0.696-1.82 4.49-1.69 1.549-3.66-2.475 1.53-5.076 4.89-8.219 4.07 1.317-2.53 6.86-6.01 4.364-8.63-2.628 1.93-6.595 8.22-3.721 10.43 1.966-2.2 5.561 0.89 1.247 1.22-1.378 2.69-1.651 6.33-3.995 8.84-1.036 2.2-0.874-1.7-1.306-2.57-0.232-2.53-0.701-2.63-1.419-0.16 0.112 2.35-5.093 4.74-2.12 1.45 0.342-4.56 5.237-7.11 5.248-11.71-2.022-4.65-2.168 3-4.163 1.85 2.574-3.94-4.562-0.39-2.898-5.05 1.299-5.61 4.133-10.81 7.024-15.76 2.623-4.16-2.837 9.36 2.499 4.21-1.227 1.65-6.278 6.43-7.511 9.89 1.004 7.6 5.782-2.35 8.173-4.32 2.978-0.53 1.331-6.51 4.362-5.22 1.384 2.45 0.561-4.23-1.814-2.3 0.978-2.12 4.175-0.79 4.309-4.21 3.557-2.83 1.602-9.45-0.995-10.95-4.031 0.88 3.069-8.1 1.581-1.68 0.528 4.83 4.203 6.24 6.437 1.48 2.198 2.95 7.26-2.73 5.052 3.11-1.077 3.06-2.608 1.26-3.808 0.08-3.232 2.99 7.321 4.12 4.448 8.79 3.104 0.78 0.732-6.19 0.077-7.87 2.348-0.87 2.107-10.03 2.53-3.52-0.838 2.69 2.053 9.3 2.783 3.23 0.59-6.02 0.03-12.13 0.93-18.13 1.1 6.15-0.29 12.6 1.26 18.69 3.4 1.81-3.18 2.25-1.45 5.52-1.21 3.2 5.27 6.72 2.71 1.75-0.05-3.98 1.67-9.35 0.99-14.18-0.34-1.7 0.84-8.35 1.59-3.28-0.57 2.43-0.41 7.48 0.87 2.3 1-4.6-0.29-9.56 1.45-13.97 2.45-3.56-6.13-2.7-5.43-6.95-3.3-3.23-4.634-7.52-7.636-10.9-0.975-4.44-4.376-7.18-4.547-11.92-3.085-3.28-1.872-8.17-4.317-11.54 0.47-4.83-4.846-7.13-8.926-6.75-5.819-1.07-3.307-9.12-4.425-13.4 0.47-2.74-1.841-9.48 2.105-8.09 2.252-3.71 5.912-4.36 9.658-4.3-2.748-3.82-8.332-1.16-10.556 1.89 0.062-2.26 2.669-7.08 6.392-6.09 3.462-3.74 9.043 0.17 13.26 1.37 4.892 1.98 10.212 4.41 12.402 9.59 1.89 3.76 4.01 8.57 0.46 11.99-1.81 5.28 6.06 5.34 8.06 9.43 2.95 4.28 8.3 3.8 12.85 3.72 4-1.04 5.7 2.26 6.11 5.57 0.79 0.16 2.23-2.2 3.27-2.99 2.17-1.15 0.37-2.64-0.54-4.05-1.24-1.52-4.92-7.4-0.97-3.94 2.19 3.45 1.02-3.92 3.5-0.02 2.76 0.05 3.69-7.39 4.95-10.27-2.38-4.42-8.06 3.8-3.82 6.32-0.09 0.33-3.17-2.44-4.12-0.02-0.33-2.05-5.01-3.51-3.08-0.95 2.85-0.36-1.9 4.01-2.02-0.1-0.78-3.26-0.04-7.39-4.66-7.21-2.28-3.7 3.03-3.2 4.57-0.98 6.45-3.39-2.15-8.47-4.11-12-2.83-3.81-3.58-8.52-4.97-12.91-3.52-2.69-8.92-2.47-12.92-4.74-3.8-2.52-7.34-7.32-6.52-12.09 0.31-4.97 3.43-8.76 5.75-12.9 3.37-6.1 5.02-12.92 7.96-19.2 1.94-4.752 6.15-8.174 11.04-9.455 4.87-3.376 11.02-4.109 16.66-5.506 1.73-0.636 6.93-0.725 2.48 0.923-6.2 2.241-13.77 1.261-18.86 6.16-3.68 2.025-7.92 2.878-9.2 7.568-2.57 4.04-2.76 8.93-5.11 13.06-2.28 5.1-5.39 9.76-8.28 14.51-1.77 1.65-1.57 8.78 1.47 5.02-0.19-6.45 6.26 1.48 1.92 3.27-4.69 4.13 2.58 8.85 6.25 6.64 4.63 0.56 7.06-2.63 6.34-7-3.17 2.63-11 1.83-7.78-3.4 3.55 0 8.15-8.64 9.72-1.13-1.16 3.77 7.95-3.18 6.78 1.2-1.63 0.25-6.5 1.77-2.12 2.19 0.77 0.13 6-1 3.47-0.25-2.51 0.99-6.7 1.25-6.94 4.51 0.4 3.76 3.84 6.02 6.41 6.62-0.34-2.81 3.12-4.63 1.62-0.69 0.2 3.9 7.16 3.3 2.96 0.03-3.67-0.07-1.32-5.46 0.69-6.22 0.97-3.53-0.29-8.36 5.19-7.83 4.58-0.65 9.26-0.83 13.86-0.26-5.44 1.06-11.18 1.32-16.75 2.01 0.2 7.91 1.67 15.79 1.1 23.7-1.75 5.3-1.88-3.71-3.37-5.09-0.62-1.78-2.61-2.9-2.46-0.2-1.4-2.19-1.5-1.61-2.51 0.03-2.68 0.04-4.86-5.26-5.04-2.12-1.02-1.23-2.45-5-1.77-0.96 0.81 3.74-0.18 9.18 4.03 10.06-0.15 3.8 1.7 6.79 4.41 2.54-0.02 1.39-3.8 5.74 0.02 3.07 1.02-1.05 3-3 3.82-0.8 1.17-4.1 7.53-3.88 10.23-7.46 8.57-6.14 15.57-14.11 24.04-20.38 1.67-0.91 6.5-6.11 4.55-1.89-1.12 3.83-5.94 5.15-8.61 7.95-1.8 1.92-6.33 5.09-6 6.69 4.09-1.78 7.63-4.75 11.9-6.1 1.52-3.2 5.88-0.81 6.19-3.78 4.09-1.24 9.85 4.02 4.05 6.25 0.8 3.94 6.95 2.26 5.14 6.7 4.11 0.89 4.64-4.94 1.22-5.95-1.03-3.08 4.01-2.56 3.24-6.33-0.53-4.49-4.78-0.71-4.05 2.08-3.42-0.1-2.25-4.19-5.72-3.07-0.82-1.81 3.44-6.45 5.59-5.45 0.6 3.13 3.91-2.4 0.77-3.48 0.71-1.28 2.23-4.68-1.46-3.65-8.28 2.38-16.78 4.06-25.35 5.02-2.39-0.62 4.38-1.66 5.7-1.97 4.35-1.27 9.8-1.04 13.17-4.34-0.15-2.13-2.72-2.81-1.86-5.36-2.67-1.89 1.85-2.7 0.73-0.39 3.69-0.51 0.62-10.08 0.44-4.04 1.06 3.19-2.33-3.34-1.81 0.97-2.59-1.94 6.38-8.09-0.26-6.16-4.74 0.13-0.99-1.82 0.95-2.63-0.46-1.46-5.36 1.23-3.8-2.83 0.93-3.5 0.07-6.896-4.3-6.173-6.68-2.235 1.56 7.463-4.78 7.023-3.26 0.04 1.32-1.57 0.05-3.28 3.08-3.25-3.63-2.31-2.45-6.278 4.81 2.172 0.51-4.928 5.37-5.283 2.95-3.4 7.09-5.141 11.2-6.215 1.76-2.044 4.75-0.613 5.94-3.797 2.75-1.23 9.19-2.127 9.15-5.207-1.35-1.495 4.57-1.238 5.33-3.346 2.93-2.152 3.42-4.123 5.23-6.635 3.12-2.073 6.09-6.615 9.5-9.465 0.86-1.633-2.09-2.901 1.61-2.53 4.01-0.812-2.92-3.167 1.54-3.239 4.87-3.607 5.13-10 7.32-14.919 1.52-5.244 0.07-10.429-1.83-15.139-5.12-2.134-3.56 6.304-5.48 8.986-2.56 5.157-5.8 10.612-11 13.429-4.14 0.554-1.65 1.729 0.76 1.465-0.31 2.215-3.43 2.915-2.69 5.723-1.71 1.851-0.19-3.224-3.34-1.762-3.14 1.54-0.72 1.116 0.97 1.254-1.15 1.811-5.06 3.801-2.72 6.461 2.19-0.274 0.42-4.737 2.83-2.684 0.27 4.391-4.6 5.782-6.61 6.064 3.27 3.928-1.75 2.482-2.2 0.873 1.23 3.725-0.97 8.461-4.87 4.649-0.19 1.615 6.58 5.689 0.91 5.058-3.51-0.623-1.01 1.68-1.2 2.718-2.55 4.002-7.48 5.141-9.9 8.31-2.54-0.775-6.15 4.227-7.38 0.879 1.76-2.651 3.17-5.858 6.57-7.265-0.13-2.219 1.11-2.613 2.53-3.641-1.87-4.016 6.46-1.989 2.94-5.189 3.08-2.54 5.32-6.404 8.09-9.627 1.96-2.139 5.61-0.787 2.49-4.052 3.09 0.217 2.12-2.964 3.2-4.296 1.22-1.361 4.07-3.14 4.13-5.816 2.04-0.099 8.77-1.509 4.46-2.024 0.84-3.071 5.21-4.799 6.35-8.478 1.92-1.302 4.53-2.164 1.62-4.597-3.17 1.858-6.36 4.855-9.98 6.497-1.44 1.216-7.24 3.213-3.07 0.491 3.77-2.171 6.91-4.266 10.42-6.763 3.92-2.915 6.51-8.481 11.68-9.148 4.41 1.572 4.52 7.366 4.7 11.344-0.16 8.44-4.11 16.333-8.41 23.403-4.37 5.332-8.56 10.823-12.83 16.237-7 8.916-18.13 12.747-27.06 19.195-5.37 2.496-4.69 7.751-1.82 11.879 2.7 4.53 3.39 9.84 6.06 14.37 2.14 3.99 3.53 8.55 6.88 11.71 1.76 5.08 8.14 7.07 9.48 12.79 2.34 5.03 8.05 6.79 11.55 10.19-0.19 2.91-0.41 2.08 1.37 0.72 4.16 2.39 7.52 6.09 10.56 9.78 1.85 3.37 5.43 6.03 6.4 10.3 4.56 1.88 6.43-6.74 10.06-8.89 1.62-1.91 7.3-7.96 5.23-1.48 0.45 3.7 5.35-4.17 7.31-5.45 2.97-3.47 7.19-6.43 7.97-11.14 2.49-4.37 10.37-1.55 6.13 3.3-5.6 2.99-10.08 7.9-14.55 12.4-3.16 3.34-2.72 8.72-5.33 12.34-1.77 2.88-6.2 0.9-5.79 4.68-3.24 2.58-7.05 6.04-2.79 9.85 4.11 5.81 8.47 11.65 10.32 18.65 2.63 4.82-0.67 9.63-3.13 13.7-1.71 2.95-4.08 5.39-6.48 7.78 2.8 4.04 5.52 8.13 7.59 12.59 7.73 12.17 10.04 26.78 12.56 40.67 3.05-3.06 1.38 6.08 1.81 8.26 0.26 3.85-0.68 8.89 1.28 11.93 1.35-6.08 0.7-12.46 0.7-18.66-0.07-7.38-1.08-14.67-2.53-21.88-0.38-6.31 1.75 5.14 3.23 6.92 1.13 4.89 1.58 9.89 2.3 14.85-0.49-11.01-1.03-22.01-1.78-33 0.95 9.02 2.43 17.98 4.57 26.79 1.01 5.2 1.27 10.87-0.42 15.85-0.34-2.29-0.25-4.78-1.93-1.6-2.64 1.78-0.87 7.62-2.3 10.91-2.12 4.72 1.13 8.64 2.48 12.98 1.62 4.59 2.39 9.41 2.86 14.22 1.73 1.88 5.72-2.51 7.08 1.86 2.71 4.57 5.02 10.54 1.9 15.51-1.61 4.45-5.38 7.5-9.98 8.27-4.76 2.07-3.08 7.38-4.09 11.27-1.9 5.46-5.14 10.63-9.48 14.44-2.84 4.08 4.42 7.26 3.97 11.81 2.95 0.36-3.2 3.25 1.34 1.55 4.61 0.02-2.89-2.9 1.76-4.38 1.3-1.08 3.51-2.46 0.46-2.09-5-0.33 7.64-1.76 1.18-1.77-2.71 0.4-7.79-2.94-2.03-1.56 4.18 0.18 9.56 2.24 13.11 0.57-2-1.49-5.91-1.37-1.23-2.04 4.64-0.76 9.38-0.79 14.05-0.63-0.86-0.5-5.63-0.51-2.6-1.14 6.05-1.59-3.77-1.11-5.77-1.24-2.34-0.24-7.56 0.2-8.27-0.76 2.79-2.21 6.77-1.66 10.4-1.69 2.45 0.04 4.89 0.07 7.34 0.11-3.55-0.49-7.21-0.51-10.65-1.46 5.16-0.69 11.02-1.3 14.93-5.07 2.05-2.17-1.99-2.71 1.64-4.38 0.75-1.26-2.67-0.63-0.25-2.26 0.6-4.2-2.18-8.5-1.45-12.54 0.94 2.45 5.53 0.68 5.62 4.7 1.42 5.86-4.74-7.79-4.04-0.59 1.63 3.38 1.36 8.11 2.61 11 3.65-2.63 3.24-8.77 3.13-12.61-2.16-2.73-0.16-2.15 1.35-0.45 0.57-2.78-2.35-9.19-4.34-8.59 1.79 2.93-1.26 2.45-1.6 1.34 0.62 1.98 0.9 7.09-1.97 3.43-0.27-2.22-0.74-5.35-3.26-2.42-1.35 2.05-1.75 4.39-2.55 0.51-0.81-2.25-0.85-8.5 1.37-3.24 2.46 3.29 3.09-1.64 1.08-2.88-0.03-3.63-2.91-8.52-3.67-3.76-1.14-1.62-2.19-6.48 0.36-2.48 0.56-3.25-3.52-7.04-2.18-9.68-1.71 1.07-1.96 8.83-2.31 3.22 0.34-2.04 0.1-7.71 3.4-4.94 0.29-4.22-3.35-8.51-1.24-13.09 4.02-0.15 0.66-7.66 3.19-10.29 0.15 4.73 0.77 9.72-0.66 14.28-1.47 0.09 0.77-4.03-1.09-1.04-1.31 2.48 2.12 4.88 1.28 8.05 1.45-3.61 1.58-7.51 2.03-11.31 1.62 3.26 1.28 8.4 2.14 12.14 0.61-1.01 1.11-5.89 1.4-5.29 0.13 2.49 0.27 4.97 0.4 7.46 0.9-2.86 1.96-5.83 1.1-8.83-0.57-2.22 2.09-9.91 2.41-4.07-0.02 1.43-0.48 6.11 0.25 2.08 2.86-3.92 1.06-9.46 1.4-14.11-0.24-7.45-1.44-14.83-1.59-22.28-0.76-1.05-0.96 6.37-2.13 2.56-2.33 3.25-1.57 10.82-3.4 12.29-0.4-6.38-0.38-12.8-1.51-19.12-1.59-3.14 5.49-9.3 0.17-9.84-1.72 0.98-3.75 4.68-2.17 0.44 0.66-4.11 4.64-1 5.75-5.35 1.67-4.05 0.73 3.1 2.55-0.27 3.35-2.72-1.17 2.63-2.37 3.42-0.95 2.12 0.04 7.16 1 7.71 0.87-2.81 1.32-6.38 3.12-8.55 0.46 2.61 0.39 5.28 0.58 7.92 0.43-3.23 0.7-6.49 1.28-9.69-0.19 1.84 0.83 9.66 2.3 4.66-0.58-2.15 1.29-6.17 2.01-1.89-0.96 4.88 3.16 1.28 5.46 2.29 2.61-4.5 1.1-10.08 2.12-15.02 0.77-5.85 1.13-11.87 2.84-17.53 2.22 3.05 1.19 8.56 1.47 12.57 0 4.97-0.94 10.16 0.41 15 1.3-1.88 0.65-5.49 0.92-8.11 0.1-0.89 0-5.17 0.24-3.47 0.7 4.5 1.38 9.06 0.76 13.61-0.23 3.36 2.49 1.72 2.55-0.55-0.7 2.48 2.51 5.43 2.4 1.38 1.69-5.67 4.54-10.88 6.96-16.25-0.56 7.18-1.54 14.33-3.43 21.3-0.87 5.54-0.8 11.2-2.06 16.7-0.34-1.08-0.6-6.28-1.35-3.95-0.75 8.67-1.99 17.3-2.5 25.98 0.19 6.54 5.06-1.77 3.53-4.57-0.46-4.93-0.94-10.73 0.4-15.14 0.54 4.45-0.25 9.07 0.82 13.43 1.41-0.01 3.52-2.57 1.99 0.75-1.55 3.32-1.07 11.09-5.06 10.71 3.15 1.63-1.61 6.14-2.34 5.64-0.14-1.26-0.61-7.04-0.58-3.38 1.29 5.14-2.77 9.04-2.45 14.06 0.65 2.77-1.69 9.41 1.69 9.44 1.81-4.13 1.63-8.21 2.22-12.74 0.38-2.63 2.06-7.85 1.6-2.02-0.35 6.54-0.15 13.22-1.32 19.65-0.38-2.56-0.14-5.19-0.21-7.78-1.84 3.56-3.81 7.14-4.43 11.14-0.82 2.36-3.08 4.09-1.33 0.54 2.17-2.43-1.32-7.27-1.58-2.08 0.18 1.88-2.17 9.07-3.48 6.69 0.46-1.64 3.96-8.86 1.1-7.12-3.73 1.77-6.61 6.14-3.64 10.25 0.76 1 0.93 4.58 2.41 2.42 1.48-1.31 2.97-2.61 4.45-3.92-1.74 2.25-4.77 4.36-4.31 7.5 3.33 1.25 9.58-5.63 6.1-8.53 3.06-2.16 2.39 2.52 2.11 4.26 1.59-2.12 5.94-1.66 1.94 0.25-3.51 1.85-6.35 4.66-9.25 7.32-0.79-1.74-1.59-3.49-2.38-5.24-1.7 1.74-3.06 4.04-5.12 5.23-1.28-2.83 2.21-3.26 1.9-5.94 4.68 5.33-0.75-10.09-0.47-2.84-0.28 2.28-3.89-1.58-3.56 2.42-1.47 4.04-0.01 9.15 5.21 7.73 7.05 0.42 14.16-0.06 21.17 0.85-4.23 1.21-9.09-0.36-13.29 1.16-1.66 2.25-1.16 5.01 1.59 2.43 1.97-0.72 1.43 3.96 3.63 1.04-2.06-3.71 9.18-1.9 3.07-0.64-2.24 1.09-6.04 5.18-0.93 4.41 1.87-0.02 7.65 0.46 3.67-1.72 2.05-0.86 9.76 1.85 4.03 2.54-3.68 0.87-10.23-0.39-12.28 0.98 2.03 0.76 4.11 1.39 6.17 2.08-4.57 0.23-9.59 0.2-13.79 0.66 7.59 0.54 15.19 0.76 22.79 1.14-6.59 0.3-13.22 0.3-19.77 0.85 2.57 0.68 9.04 0.51 9.42 1.31-2.38 0.18-8.79 0.06-4.66 1.85-2.7 0.49-7.87-1.67-9.3 0.58 6.57 1.66 13.51 0.37 20.15 1.46-1.85 0.4-6 1.05-1.76 1.98 2.3 0.49 6.67 2.6 1.8 2.27-2.32-0.67-6.96 1.34-2.23 1.93 1.91 0.29 8.26 0.17 3.06 1.44-2.43 0.85 4.93 0.38 2.79 4.03 0.9 5.06-4.15 7.62-8.25 8.64-2.84 1.33-5.59 3.4-8.35 3.6 4.18 2.91-9.24 0.29-2.82 3.14-1.73 1.94-10.26 0.36-9.34 2.08 5.23 1.96-4.89 0.14-5.64 2.58-6.31 1.95-12.98 2.15-19.46 3.01-3.6 3.26-8.71 3.84-13.02 5.94-4.26 2.07-8.5 4.2-12.83 6.09-3.86 2.77-6.87 7.33-12.1 7.54-9.52 1.04-19.13 0.75-28.69 1.07 0.83-0.65 1.67-1.31 2.5-1.96zm49-23.24c3.95-1.64 7.44-5.33 12.02-6.22 4.17-0.33 0.65-5.81 5.52-4.93 0.81-1.91 7.05-3.68 5.42-4.99-7.22-0.93-14.67-0.2-21.79-1.61 5.63-0.86-4.35-1.97-5.09 0.89-3.57 1.61-1.57 7.65-4.34 10.7-0.84 3.33-0.41 6.77-0.4 10.16 2.89-1.25 6.32-1.82 8.66-4zm-11.35-5.32c2.25-4.75-7.39 0.36-1.2-0.41 0.51 0.54-2.84 2.87 0.41 1.49l0.46-0.49 0.33-0.59zm52.08-2.15c-1.7-0.79-5.01 0.7-1.23 0.5-0.07 0.07 2.78-0.09 1.23-0.5zm-21.48-1.97c-2.39-0.88-3.83 1.05-0.38 0.46 0.15 0.22 1.16-0.37 0.38-0.46zm27.94-0.02c-4.94-0.99 0.98 2.08 0 0zm-21.19-4.32c-2.96-2.62-3.51 1.08-0.19 0.98 1.37 0.27 1.33-0.55 0.19-0.98zm-40.5-2c-1.72-1.85-7.65-4-8.97-0.08 2.59-0.03 3.72-3.02 5.79 0.48 0.96 0.7 2.54 0.79 3.18-0.4zm-22.5-3c-2.47-3.85-2.49 3.77 0 0zm48.92 0.64c-1.56-1.78-8.5-1.13-3.26 0.28 0.94-0.01 2.52 0.34 3.26-0.28zm7.58-0.73c-3.44-1.43 7.86 0.55 3.26-1.7-2.44-0.02-7.79 0.06-7.99 2.52 0.49 0.2 8.26 0.64 4.73-0.82zm-45-1.91c-2.66-0.79-9.36-1.83-10 0.06 2.24 0.3 9.84 1.55 10-0.06zm37.5 0c3.06-2.92-6.03 1.17-1.33 0.71l0.63-0.29 0.7-0.42zm-32-1.56c-1.92-0.07-3.47-0.79-4.34-1.84-6.41 0.23 4.18 4.31 4.34 1.84zm25.5-0.97c-1.89-1.06-7.96-2.07-2.95 0 1.91 1.2 8.23 2.01 2.95 0zm12.5 0.53c-1.76-0.93-8.77-1.41-3.65 0.53 1.12 0.46 8.34 0.7 3.65-0.53zm2.25-1.66c-2.39-0.88-3.83 1.05-0.38 0.46 0.15 0.22 1.16-0.37 0.38-0.46zm8.94-0.02c-4.94-0.99 0.98 2.08 0 0zm27-1c-4.94-0.99 0.98 2.08 0 0zm-123.76-1.21c-1.17-3.83-4.95 0.81-0.69 0.7l0.69-0.7zm128.32-0.83c-1.72-0.58-8.99 0.25-3.8 0.41 0.39-0.06 5.7 0.19 3.8-0.41zm-38.75-0.66c-1.17-2.26-7.4-0.03-2.56 0.38 0.81-0.11 1.85 0.11 2.56-0.38zm-85-1.62c-3.54-3.92-3.96 3.79 0 0zm121.25 0.34c-2.39-0.88-3.83 1.05-0.38 0.46 0.15 0.22 1.16-0.37 0.38-0.46zm-125.25-1.17c-1.71-2.66-3.9 1.55-0.28 0.59l0.21-0.27 0.07-0.32zm15.5-3.16c-3.07-3.37-0.53 3.78-4.35 2.09-3.1 1.1 6.58 1.74 4.35-2.09zm35.5 2.93c-1.54-2.12-2.55 2.88-0.08 0.41l0.08-0.41zm43.19 0.38c-4.94-0.99 0.98 2.08 0 0zm6 0c-4.94-0.99 0.98 2.08 0 0zm-10-1c-4.94-0.99 0.98 2.08 0 0zm-105.19-2.32c-2.47-3.85-2.49 3.77 0 0zm-3-2c-3.54-3.92-3.96 3.79 0 0zm125.19 0.32c-4.94-0.99 0.98 2.08 0 0zm-152.19-1.32c-2.47-3.85-2.49 3.77 0 0zm6.71-0.62c-0.94-2.8-7.76 2.01-2.53 1.42 0.92-0.21 2.08-0.48 2.53-1.42zm52.29 0.06c-2.72-2.22-2.45 3.96 0 0zm88.23 0.92c3-0.05 4.43-2.26 0.39-1.48-2.55 0.4-8.81 0.41-8.97 2.01 2.86 0.24 5.75-0.11 8.58-0.53zm-99.81-3.49c0.53-3.47 2.78 1.56 5.13-0.64-1.2 4.58 5.18-3.12 4.02 1.69 2.45-1.46 0.8-9.73-3.32-5.53-3.03 1.82 1.1-6.85-1.6-2.67 0.1 1.95-2.21 6.61-2.51 2.29 0.85-1.98 0.08-7.49-1.9-3.1-1 2.82-2.24 8.73-0.29 10.14 0.35-0.64 0.76-1.45 0.47-2.18zm-18.42 0.57c-2.72-2.22-2.45 3.96 0 0zm111.19 0.88c-4.94-0.99 0.98 2.08 0 0zm-142.94-0.98c-2.39-0.88-3.83 1.05-0.38 0.46 0.15 0.22 1.16-0.37 0.38-0.46zm4.94-0.02c-4.94-0.99 0.98 2.08 0 0zm90.81-0.32c-2.47-3.85-2.49 3.77 0 0zm9 0c-2.47-3.85-2.49 3.77 0 0zm-117.36-1.3c-1.66 0.77-3.44-1.29-3.04-3.39-4.43 2.2-2.72 6 3.04 3.39zm179.86-0.7c4.31-3.73-7.22-0.37-4.06-5.03 2.84-3.33-6.76-3.39-9.16-2.28-0.76 2.11 2.94-0.11 3.23 1.85 1.97-1.46 4.56-1 1.73 1.07-1.95 0.64-5.27-1.1-2.24 1.38-5.23 3.36 9.05 1.08 2.26 3.35-1.33 0.27-7.23-0.59-5.88 1.38 4.57 0.02 10.36 1.48 14.12-1.72zm-164.06 0.09c-0.71-1.84-5.71 1.67-1.4 0.84 0.53-0.14 1.08-0.37 1.4-0.84zm145.29 0.22c-1.7-0.79-5.01 0.7-1.23 0.5-0.07 0.07 2.78-0.09 1.23-0.5zm-133.76-4.18c-0.19-3.08-3.16 4.2-3.29-0.04-1.64 4.23 3.07 4.26 3.29 0.04zm24.53 2.87c-1.46-3.77-4.38 3.39 0 0zm-51.5-0.89c0.9-1.97 6.46-1.33 3.47-3.96 2.11-2.95 7.23 0.35 5.95-4.94 0.34-2.78-1.24-3.67-1.94-1.03-3.13-0.27-10.69 0.84-6.15 4.82 3.71 2.15-1.36 3.19-2.91 2.5 3.74 1.02-3.02 2.8 0.97 3.43 0.34-0.12 0.61-0.45 0.61-0.82zm4-7.11c1.86-1.5 7.54-0.97 2.61 0.34-0.55 0.27-5.62 1.42-2.61-0.34zm105 5.96c5.76-2.45-4.8-2.59-3.23 1.3 1.03 0.34 2.8-0.23 3.23-1.3zm55.7 1.25c3.49-5.45-9.05-1.64-3.68 0.66 1.24 0.22 2.59 0 3.68-0.66zm-187.85-2.34c1.54-2.03 3.55-9.44-0.76-4.86-1.91-0.17-7.22 1.77-3.16 1.71 0.01 3.15 4.43-4.11 4.25 0.42-0.32 3.08-7.01 1.23-2.75 4.74 1.19 0.35 1.84-1.29 2.42-2.01zm59.15 1.13c-3.54-3.92-3.96 3.79 0 0zm-67.19-2.25c1.4-2.1-0.47-8.42 4.21-5.28 1.24-1.17 3.31-5.53 5.91-3.08 0.71-3.34 4.81-5.71 5.99-4.17-0.73-1.94-5.19-3.67-0.53-4.6 3.33 0.29 3.95-5.74 0.73-2.7-0.13 3.25-2.56 1.64-1.28-0.77-2.54 0.17-5.24 0.82-4.79 3.35-3.21-1.36-1.99 3.51 0.59 2.75-1.72 2.51-5.9 8.29-8.51 6.39 4.96-2-0.85-7.05 3.61-9.53 0.26 1.71 0.4 6.45 1.11 2.03 0.84-4.93 0.38-10.03 1.57-14.9 2.21 0.98 0.54 9.98 3.25 9.1-1.05-3.85 0.29-11.63-5.27-11.68-0.84 1.07 0.59 5.83-1.7 3.23-0.84 2.25 0.4 8.56-0.28 8.61-1.16-3.56-1.14-10.63-4.52-11.83-3.05 3.35 0.79 8.91-2.81 11.28-0.64 2.5 3.1 0.6 0.66 3.3-1.67 1.75-2.72 10.08 0.25 4.89 4.98-0.45 3.53-10.84 4.57-10.63 0.54 3.57 1.39 10.16-1.77 11.76-2.76 0.19-5.06 9.67-1.84 4.35 4.58-1.68-0.85 4.33-2.2 5.48-2.83 4.14 3.95-2.84 1.01 1.88-2.36 1.5-2.96 4.02 0.58 2.05l0.81-0.59 0.65-0.69zm9.19-10.69c2.58-5.53 0.95 3.45 0 0zm-10.44-5.35c3.3-4.45-0.83 3.86 0 0zm0.52-12.13c1.08-5.51 0.83 4.34 0 0zm73.58 26.17c-1.5 0.2 0.48 5.11 0.16 0.58l-0.16-0.58zm19.34 2.14c-0.87-1.41-4.22 0.8-2.29-2.41-3.59 0.15 0.24 6.03 2.29 2.41zm54-0.93c-0.48-2.52-5.64-6.75-2.67-1.51-0.04 1.17 2.41 4.08 2.67 1.51zm-52.64-8.93c-2.75 1.8-6.36 5.75-7.03 8.13 2.58-2.38 5.56-4.91 7.03-8.13zm-68.36 6.14c-0.64-3.71-4.84-0.93-1.67 1.44 1.01 1.06 1.83-0.53 1.67-1.44zm33.55 0.92c-0.04-1.04 2.83-3.38-0.16-2.56-2.17 0.9-0.94 5.85 0.16 2.56zm93.45-0.15c-1.54-2.12-2.55 2.88-0.08 0.41l0.08-0.41zm-123-1.44c-2.81-5.61-0.58 4.94 0 0zm66.62 0.19c4.68-1.38-6.34-1.67-3.02 1.05 0.76-0.81 1.88-1.46 3.02-1.05zm59.38-0.25c-0.97-3.37-2.64 2.78-0.11 1.04l0.11-1.04zm-173-2.56c-1.485-2.3-2.956 4.14-0.294 0.89l0.294-0.89zm7.9-4.19c0.144-1.83-3.916-2.13-2.031 0.43 0.183 2.48 0.232 8.19 1.45 2.77 0.263-1.05 0.496-2.12 0.581-3.2zm168.1 4.75c-2.72-2.22-2.45 3.96 0 0zm-172.7-1.19c0.53-6.76 0.606-13.6 0.198-20.36-0.55 1.56-0.899 8.5-1.638 3.11-1.379-3.94 1.411-9.68-1.055-12.56-1.343 0.8-2.908 6.16-2.281 1.63 0.671-5.79 1.551-11.53 3.41-17.07 0.73-2.35 0.259-5.26 2.561-5.93-1.428-6.41-8.173 4.96-4.082 4.29-2.04 4.05-3.562 8.53-4.321 13.09-1.742 8.95-1.582 18.22-4.248 27.01-1.34 5.33 3.629 1.71 3.519-1.44 1.677-4.48 0.94-9.68 2.453-13.99 0.687 4.59-1.53 9.66 0.957 13.88-0.268 2.24-0.312 8.46 2.615 4.15 2.971-1.74-3.413 10.66 1.912 4.19zm-2.141-8.25c0.697-4.72 0.697 4.72 0 0zm9.504 6.75c-1.504 0.2 0.478 5.11 0.156 0.58l-0.156-0.58zm43.858-0.77c-0.77-1.73-0.84-4.18-1.49-5.5-3.33-2.58-1.16 3.22-0.02 4.73-1.43 1.56-7.71 0.18-6.87 2.25 3.14-0.22 8.27-0.46 7.73 0.81 0.38-0.7 0.58-1.49 0.65-2.29zm17.46 2.27c-0.7-2.26-2.54-4.59-1.6-0.73-2.58 1.87 0.84 1.8 1.6 0.73zm-9.37-2.78c-1.13-4.91-2.47 5.34-0.18 0.83l0.18-0.83zm13.39 1.2c-1.48-3.17-3.65 0.25-0.38 1.33l0.27-0.39 0.11-0.94zm-91-0.67c-2.469-3.85-2.49 3.77 0 0zm27.66-2.25c-1.5 0.2 0.48 5.11 0.16 0.58l-0.16-0.58zm158.71 0.05c1.83-4.3-5.82 2.47-1.8 2.77 0.4-1.03 0.86-2.11 1.8-2.77zm-110.37-1.2c-2.46-1.16-6.77 2.72-2.04 1.4 0.71-0.33 1.77-0.56 2.04-1.4zm8.66-2.26c-2.39-0.81-8.41 2.62-3.93 3.85 1.45-0.79 3.69-2.11 3.93-3.85zm3.62 1.95c-0.47-1.53 4.81-1.91 1.79-3.16-2.38 0.54-7.62 5.94-1.95 4.09l0.22-0.41-0.06-0.52zm41.01 0.27c1.38-2.29 4.85 2.19 3.44-1.99-2.28 0.89-2.53-5.02-2.7-0.59-0.77 3.05-5.89-5.11-4.24 0.01 2.27 1.1 2.21 2.64 0.52 3.92 1.11 0.29 2.21-0.68 2.98-1.35zm-70.22-0.6c4.25-1.28-0.19-6.65-1.07-2.04 0.15 2.06-3.8 3.91 0.25 2.44l0.82-0.4zm-3.65-0.57c4.44-1.57-2.12-6.06-3.08-3.56 5.48-0.95-2.16 6.01 3.08 3.56zm16.78-1.59c-4.02-2.57-0.31 3.88 0.71 0.99l-0.25-0.46-0.46-0.53zm-19.8 0.37c-1.48-3.69-3.17 3.1 0 0zm29.6-1.17c-2.47-3.85-2.49 3.77 0 0zm-3.4-2.73c-1.93 1.48 1.12 4.07 0 0zm55.79 1.31c-1.18-2.19 5.05-7.9 0.66-7.09 0.38 2.86-4.53 1.66-3.62 4.28 1.93-1.3 0.26 5.39 3.29 3.75l-0.33-0.94zm62.11 0.42c-6.15-4.16 1.29 3.31 0 0zm37.25-2.71c1.98-1.54 0.87-5.94-1.11-2.94 1.54 2.34-5.59 5.33-0.81 5.43 0.87-0.62 1.47-1.54 1.92-2.49zm-173.75 0.21c-1.7-5.6-4.32 5.96 0 0zm2.46-0.57c-2.5-3-1.01 4.46 0.14 0.41l-0.14-0.41zm5.54 0.07c-0.2-5.82-2.67 5.06-0.07 0.78l0.07-0.78zm8 1c-2.47-3.85-2.49 3.77 0 0zm12.74-1.45c-4.01-3.55-0.68 4.09 0.66 1.08l-0.24-0.52-0.42-0.56zm109.76 1.45c-3.51-3.73-0.16 3.95 0 0zm-139.93-3.12c-1.24-3.41-6.85 3.09-1.68 1.12 0.61-0.28 1.27-0.56 1.68-1.12zm6.03-0.48c-2.77-4.26 0.21 5.65 0.21 0.69l-0.21-0.69zm123.89 1.58c-2.5-2.69-3.46 3.81 0 0zm41.11-1.71c-3.08-1.41 0.38 5.61 0.31 0.8l-0.1-0.46-0.21-0.34zm-176.6 0.73c-2.97-1.74-6-2.14-7.28-5.84-3.2 3.82 4.56 8.64 7.28 5.84zm146.18-1.22c-3.25-2.01 1.6 4.46 0.42 0.5l-0.42-0.5zm-171.28-5.78c2.56-1.37 3.55-8 0.62-6.91 1.26 4.54-4.121 7.71-3.332 12.63 1.172-1.74 1.392-4.03 2.712-5.72zm39.69 2.26c-3.16-1.49 0.21 7.19 0.28 1.66 0.01-0.55 0.08-1.19-0.28-1.66zm22.41 2.18c-2.72-2.22-2.45 3.96 0 0zm111.22-1.66c-3.5-3.61-3.13 0.64-0.06 1.9 2.62 2.03 1.5-1.05 0.06-1.9zm21.78 2.28c-1.69-4.91-3 2.75-0.08 0.36l0.08-0.36zm-170.97-3c-1.38-4.08-5.07 1.39-0.95 1.03 1.74 2.55 2.13 2.24 0.95-1.03zm79.1 0.28c1.56-1.2-0.82-3.87-1.02-3.91-1.63 1.91 1.11 5.53-2.73 4.23 0.67 2.32 2.88 0.97 3.75-0.32zm-66.13-1.4c-2.59-3.7-2.32 5.25 0 0zm10 1c-1.54-2.12-2.55 2.88-0.08 0.41l0.08-0.41zm115.34-0.19c0.71-2 3.53 3.18 2.27-0.55-1.68-2.05-7.84-3.4-5.27 0.36-0.65 2.07 2.67 1.66 3 0.19zm11.67-1.74c-1.5-1.84-5.3-1.54-1.9 0.6 2.09 2.05 5.8 1.95 1.9-0.6zm36.37-0.17c0.85-2.35 0.1-4.99-0.88-1.08-1.38 2.21-0.44 6.5 0.74 1.72l0.14-0.64zm1.22 0.43c-1.93 1.48 1.12 4.07 0 0zm-12.6-1.89c-1.1-1.17-2.37-1.6-2.51-4.06-4.39-0.29 0.26 3.57 0.61 5.68 1.11 1.33 2.1-0.59 1.9-1.62zm-167.34-1.63c-1.5 0.2 0.48 5.11 0.16 0.58l-0.16-0.58zm134.94 0.52c-1.93 1.48 1.12 4.07 0 0zm24.51-0.56c-3.11-1.73 1.07 6.08 0.68 1.13l-0.28-0.6-0.4-0.53zm15.34-2.64c-1.21-8.79 0.02-17.83-2.02-26.55-0.33-2.3-0.27 2.1-0.41 2.98-0.21 9.77 0.14 19.6 1.21 29.31 1.07-1.61 1.7-3.83 1.22-5.74zm8.86 0.68c0.76-1.64-0.53-8.09-1.16-3.24-0.05 2.33-0.61 6.77 0.44 7.91 0.41-1.52 0.54-3.11 0.72-4.67zm-197.65 1c-1.5 0.2 0.48 5.11 0.16 0.58l-0.16-0.58zm10.32-0.5c-1.84-4.53-2.44 7.01-0.26 1.28l0.19-0.69 0.07-0.59zm12.62-0.98c-1.93 1.48 1.12 4.07 0 0zm172.06-1.54c-1.3 0.16 0.16 6.14 0.21 1.39l-0.06-0.77-0.15-0.62zm-188.66 2.27c-3.54-3.92-3.96 3.79 0 0zm178.03-5.21c-0.15-5.12-1.16-10.17-1.27-15.29-0.94 3.77-2.12 7.69-1.43 11.6 1.21-0.91 2.56-0.88 0.75 1.35-0.78 2.4-1.15 7.22 0.36 8.63 1.03-1.9 1.51-4.14 1.59-6.29zm-209.65 1.96c0.929-4.82-2.324-1.17-1.357 1.61-0.79 4.95 1.377-1.13 1.357-1.61zm201.92 0.92c-0.53-3.86-3.99 1.83-0.38 0.87l0.38-0.87zm-28.74-2.45c-1.75-1.98-6 0-2.95 1.45-1.59 2.4 3.54-0.46 2.95-1.45zm-162.38-1.44c-3.25-2.01 1.6 4.46 0.42 0.5l-0.42-0.5zm6.42-0.51c-1.93 1.48 1.12 4.07 0 0zm33 0c-1.93 1.48 1.12 4.07 0 0zm155.38-0.02c0.61-4.6-2.49 2.14-2.11-2.03-2.1 0.99 2.44 8.4 2.11 2.03zm-175.79 1.07c-4.94-0.99 0.98 2.08 0 0zm190.47-3.59c-1.3 0.16 0.16 6.14 0.21 1.39l-0.06-0.77-0.15-0.62zm-222.32-0.43c0.599-1.73 0.373-5.89-0.661-1.94-1.113 1.76-1.204 8.46 0.368 3.38l0.157-0.69 0.136-0.75zm36.322 0.45c-1.5 0.2 0.48 5.11 0.16 0.58l-0.16-0.58zm-22.06-0.48c-1.93 1.48 1.12 4.07 0 0zm-11.615-1.58c-0.504-4.89-3.54 6.34-0.283 1.73l0.21-0.83 0.073-0.9zm216.68 0.06c-1.5 0.2 0.48 5.11 0.16 0.58l-0.16-0.58zm-180.06-0.48c-1.93 1.48 1.12 4.07 0 0zm-23-1c-1.93 1.48 1.12 4.07 0 0zm191.21 0.2c-2.14 0.52-1.56 4.22 0.03 0.76l0.09-0.44-0.12-0.32zm-219.82-1.22c0.034-5.85-3.898 5.2-0.283 1.94l0.21-0.87 0.073-1.07zm58.135 0.48c-2.63-2.1 1.76 4.38 0.44 0.53l-0.44-0.53zm11.48-2.46c-1.93 1.48 1.12 4.07 0 0zm58.59 2.05c-4.94-0.99 0.98 2.08 0 0zm108.24-2.47c2.56-3.84 0.98-7.88 0.14-11.17-0.93 2.98-3.99 4.62-3.95 0.25-3.32-3.43-1.55 5.37-1.79 7.13-0.66 2.74 2.2 6.51 2.15 1.75-1.37-3.14 4.91-6.29 2.4-1.68-2.34 1.64-1.62 10.31 0.72 4.35l0.33-0.63zm-183.43 1.76c-2.23-2.88-4.65 0.55 0 0zm-36.396-3.34c-3.083-1.41 0.379 5.61 0.303 0.8l-0.101-0.46-0.202-0.34zm55.936-0.2c-2.2-2.82-3.55 1.38-0.62 0.61 0.04 2.48 1.55 0.5 0.62-0.61zm113.96 0.93c-3.51-3.73-0.16 3.95 0 0zm-185.9-3.73c-1.936 1.48 1.118 4.07 0 0zm36.576 0.51c-3.25-2.01 1.6 4.46 0.42 0.5l-0.42-0.5zm192.48-2.05c-1.3 0.16 0.16 6.14 0.21 1.39l-0.06-0.77-0.15-0.62zm-180.3 1.77c-0.67-1.35 3.61-3.07 0.32-3.37-2.85 0.68 0.06 7.7-0.32 3.37zm86.64-0.06c-2.72-2.22-2.45 3.96 0 0zm-129.74-3.81c4.917-0.72-0.331-5.11-1.685-1.25-1.968 1.82-1.625 8.17-0.246 2.63 0.393-0.68 1.054-1.42 1.931-1.38zm17.741 2.81c-3.7-2.32-2.99 3.36 0 0zm135.12-1.11c-2.81-4.01 1.32 5.78 0.38 0.74l-0.38-0.75v0.01zm23.88 1.67c-2.91-4.16-1.12 3.61 0 0zm-184.34-3.25c-1.504 0.2 0.473 5.11 0.156 0.58l-0.156-0.58zm20.338 0.25c-2.908-4.16-1.124 3.61 0 0zm11.12-1.27c-2.63-2.1 1.76 4.38 0.44 0.53l-0.44-0.53zm148.96-0.83c-0.56-2.84-1.46 0.42-2.63-0.4 1.08 1.92 4.87 4.52 2.63 0.4zm60.64-8.17c-0.6-1.1-0.58 8.79 0.01 7 0.21-2.33 0.23-4.68-0.01-7zm-236.72 7.21c-2.593-3.7-2.319 5.25 0 0zm226.8-16.07c0.07-4.38-0.43-8.94 0.45-13.22 1.06-2.53 0.67-9.45 0.15-10.11-0.44 2.18-0.77 7.7-1.97 2.77-4.41 0.55-0.94 7.8-1.14 11.11 0.67 1.99-2.46 6.52-0.71 6.8 2-4.49 1.21 6.43 1.19 8.52 0.73 2.87-3.26 5.23-0.04 5.28 0.38 2.13 0.29 9.8 1.66 3.66 0.52-4.92 0.48-9.88 0.41-14.81zm-226.01 9c-0.31-4.42-3.007 0.23-2.148 1.95-2.638-1.73 0.873 4.03-2.583 1.66-2.779-0.11 1.251 5.03 2.594 1.36 1.224-1.34 2.218-3.1 2.137-4.97zm45.787 3.6c-0.54-1.83 2.41-4.7-1.08-4.54-0.8 1.51 0.4 10.5 1.24 5.48l-0.16-0.94zm101.61 2.85c-4.94-0.99 0.98 2.08 0 0zm-145.19-2.38c-2.593-3.7-2.319 5.25 0 0zm7 0.5c-2.115-4.22-2.507 5.53 0 0zm143.64 0.52c1.77-2.03 8.64-4.08 7.47-6.11-3.17 2.11-6.28 3.25-9.47 0.69-5.51 0.53 0.05 3.42 0.8 4.35-4.02 2.36-1.2 2.85 1.2 1.07zm20.96-1.11c4.31-4.89-6.03 3.07-1.3 1.39l0.58-0.59 0.72-0.8zm58.14-8.05c-1.13-9.28-0.1-18.63-0.46-27.93-2.39-4.55-2.55 5.32-2.52 7.68-0.1 8.23-0.57 16.58 0.35 24.75 1.58-1.12 0.12 9.25 2.82 3.33 0.58-2.58 0.06-5.25-0.19-7.83zm-210.74 8.2c-2.91-4.16-1.12 3.61 0 0zm35.12-1.67c-2.81-4.01 1.32 5.78 0.38 0.74l-0.38-0.75v0.01zm91.7 1c-1.24-5.44-5.14 2.11-0.63 1.55 0.59-0.24 0.77-0.98 0.63-1.55zm89.87-4.09c-1.05-0.41-0.13 7.87 0.18 2.44 0.03-0.82 0.01-1.64-0.18-2.44zm-225.33 3.27c-2.62-3.09-1.613 2.48 0.345 0.98l-0.345-0.98zm126.64-0.63c1.12-0.98 3.16 2.04 4.24-0.89 5.68 0.12-1.65-9.73-1.56-3.05 0.89 4.8-1.1 1.14-2.68 0.84-0.94 1.48-4.45-0.81-2.39 2.64 0.17 1.2 2.41 2.5 2.39 0.46zm-135.78-2.94c-4.429-4.29 0.228 5.26 0.994 1.53l-0.389-0.72-0.605-0.81zm49.782 2.06c-2.91-4.16-1.12 3.61 0 0zm50.81-0.94c3.51 0.33 4.57-2.34 7.52-3.51-0.77-2.33 4.78-8.02 4.34-3.92-2.3-1.12-3.04 5.75-1.6 3.59 1.84-3.53 6.13-2.09 8.68-4.06-5.5 2.02 0.41-2.71 2.8-1.72-0.41-3.66-5.58-5.67-7.23-6.15-0.34-5.16-5.53-3.95-8.07-1.13-2.07 1.03-3.2 1.66-0.37 1.1-2.45 3.34-5.83 4-9.63 5.29-6.01 0.87-11.8 2.74-17.63 4.32-1.26-0.06-3.81-3.26-4.29-1.36 3.1 2.45 2.14 8.36 8.06 8.21 5.8 1.32 11.59-0.76 17.42-0.66zm7.19-9.44c1.66-2.31 4.36-3.41 1.24-0.34-0.01 0.08-1.28 1.33-1.24 0.34zm-100.41 7.75c-0.388-1.06 3.114-3.79-0.004-2.45-2.591 1.13-2.17 7.04 0.094 3.03l-0.09-0.58zm223.01-0.1c-1.93 1.48 1.12 4.07 0 0zm-183.52-4.27c0.87 1.29-0.6 7.32 1.52 2.96 0.45-2.25 0.11-4.55 0.08-6.82-1.59 1.98-3.31 4.01-3.97 6.46-4.28-1.84 1.89 5.66 1.1 0.3 0.19-0.97 0.26-2.43 1.27-2.9zm6.52 3.27c-1.93 1.48 1.12 4.07 0 0zm5 0c-1.93 1.48 1.12 4.07 0 0zm95.76 1.23c0.91-2.35-4.56-0.99-0.77-2.93 1.08-2.95-8.97-1.44-3.62 1.34 1.01 2.18 2.12 4.92 4.39 1.59zm-130.07-1.48c1.05-3.46-3.67 1.45-3.68-1.87-1.41 1.72 3.32 6.31 3.68 1.87zm123.44-1.34c-2.1-3.62-8.75-0.39-3.95 2.46 1.49 0.5 4.3-0.54 3.95-2.46zm-142.73 0.7c-3.49 1.12-1.53-4.21 1.49-1.76-0.077-1.86-5.669-5.31-6.171-0.32-1.696 2.9 3.733 4.28 4.681 2.08zm11.49 0.63c-0.12-2.01-4.669 2.2-0.7 0.7l0.7-0.7zm48.69-7.26c-1.45-1.36-1.93-3.8-3.38-4.66-1.16 3.21-1.94 9.09 2.18 9.23 0.15 5.46 1.67-1.67 1.2-4.57zm-2.1 0.83c1.08-5.51 0.83 4.34 0 0zm72.01 5.11c-1.75-2.72-7.98-0.85-3.15 0.96 0.51-0.03 4.56 0.64 3.15-0.96zm-80.09-2.07c-0.17-2.07-0.29-8.25-2.15-7.57 0.02 2.91-0.65 8.26 1.6 9.76 0.47-0.62 0.52-1.44 0.55-2.19zm105.5 1.38c-3.51-3.73-0.16 3.95 0 0zm14.5-1.06c-1.01-4.67-2.3 3.37-0.1 1.4l0.07-0.6 0.03-0.8zm57.66-2.21c-1.3 0.16 0.16 6.14 0.21 1.39l-0.06-0.77-0.15-0.62zm-192.13-0.34c-4.61-4.22-0.18 5.3 1.28 2.15-0.18-0.83-0.7-1.55-1.28-2.15zm98.47 2.2c0.14-1.61 6.87-0.54 3.65-2.71-0.26-2.79-3.62-4.02-4.02-0.51-3.66-1.05-6.3 3.09-1.69 4.47 0.92 0.37 2.16-0.1 2.06-1.25zm-108.6-0.99c-0.08-1.4 2.58-5.18-0.81-3.75 1.6 6.49-8.37-5.11-5.44 0.39 0.73 1.08 6.52 7.4 6.25 3.36zm21.2-1.33c-3.08-1.41 0.38 5.61 0.31 0.8l-0.1-0.46-0.21-0.34zm179.09-2.02c-1.15-0.59-0.01 7.1 0.19 1.75l-0.05-0.93-0.14-0.82zm4.76-1.5c1-2.25-0.4-8.89-1.28-3.17-0.09 2.55-0.61 7.63 0.41 8.66 0.45-1.8 0.62-3.65 0.87-5.49zm-219.45 2.69c-2.72-2.22-2.45 3.96 0 0zm28.46-0.51c-2.5-3-1.01 4.46 0.14 0.41l-0.14-0.41zm85.77 1.51c-0.12-2.08-5.57-7.18-5.86-4.37 1.56 1.3 3.41 5.98 5.86 4.37zm25.59-2.09c-0.02-3.87-5.5-4.96-4.82-0.23-0.62 4.68 2.85 0.87 4.82 0.23zm-147.89-0.5c2.696-1.3 0.723-5.68-0.532-2.19 0.607 1.87-7.402 1.97-2.427 4.29 1.251-0.16 2.113-1.29 2.959-2.1zm28.674-0.58c-3.08-1.41 0.38 5.61 0.31 0.8l-0.1-0.46-0.21-0.34zm5 0c-1.93 1.48 1.12 4.07 0 0zm107.76 1.23c-1.03-2.34-6-0.61-2.79-3.58 0.22-3.76-3.04-5.59-6.31-4.08 3.36-1 5.1-5.12 0.43-5.86-6.44 0.31 4.21-2.11-0.14-4.8-6.35-3.5-5.54 5.61-2.86 8.84 2.21 4.2 4.85 8.76 9.27 10.89 0.93 0.23 3.15 0.16 2.4-1.41zm-13.38-1.86c0.01-3.24-6.45-8.24-5.22-2.31 0.43 1.86 4.66 6.46 5.22 2.31zm-95.98-0.58c-1.69-4.91-3 2.75-0.08 0.36l0.08-0.36zm5 0c-1.69-4.91-3 2.75-0.08 0.36l0.08-0.36zm94-0.84c0.62-2.67-5.45-8.87-3.68-3.11 0.35 1.33 3.2 7.85 3.68 3.11zm-113-3.72c3.01-1.45-3.23-0.98-4.5-1.07-1.94-0.79-0.79 3.85-1.1 5.43 1.7-1.55 3.11-4.27 5.6-4.36zm0 3.5c-2.91-4.16-1.12 3.61 0 0zm-37.193-2.53c-2.134 0.52-1.558 4.22 0.03 0.76l0.089-0.44-0.119-0.32zm43.193 1.53c-1.33-2.83-4.46 1.05-0.58 0.92 0.36-0.16 0.58-0.54 0.58-0.92zm9.6-1.73c-1.93 1.48 1.12 4.07 0 0zm7.28-6.49c0.22-2.7-0.03-8.25 0.86-9.14 0.64 4.83 0.14 9.81 0.77 14.59 0.44-2.22 1.3-9.16 1.38-3.25-0.32 2.77 0.61 2.12 1.96 0.32 2.86-2.42 2.79-7.24 7.54-6.05 3.97-0.77-2.98-2.29 0.86-3.18 2.96 1.7 5.28-3.71 1.5-0.51-2.19-2.56 4.35-5.56 5.41-8.75 0.86-4.14 6.68 0.73 5.56-3.59-3.02 3.95-3.13-3.67 0.81-2.19 7.82-5.2 14.78-11.64 21.32-18.35 2.23-3.78 4.86-7.37 7.87-10.7 2.16-1.88 0.97-5.73 3.89-4.8 2.7-3.92 6.22-7.48 9.23-11.27 1.02-2.15 5.77-2.71 4.27-6.74-4.34-0.1-6.89 6.58-10.11 9.39-2.9 2.89-5.2 7.82-8.91 9.1 0.06-2.22 4.64-4.03 0.51-5.88-4.22-3.33-8.26-0.91-12.08 1.3-5.8 1.34-5.64 9.04-3.97 13.47 0.84 3.34 3.11 6 5.26 1.79 3.19-3.28 5.83-7.14 9.15-10.24 0.63 3.71 5.35-2.26 3.53 1.51-4.24 2.03-7.71 5.4-10.79 8.98-1.89 2.46-6.38 6.72-6.41 8.52 5.4-2.68-2.09 4.44-3.83 5.57-2.67 1.82-6.7 7.38-9 6.72 2.33-3.59 5.59-6.45 8.44-9.62-3.11-5.98-6.31-12.03-11.21-16.77-3.25-3.53-5.25-7.83-7.8-11.86-2.37-3.76-3.63-8.45-5.81-12.05-2.18-0.99-4.24 1.21-1 1.26-0.62 4.54 0.23 8.67 0.61 13.09-0.96 4.36-3.51 8.5-1.81 13.19 1.63 1.9 2.46 5.09 4.42 6.24-0.28-1.83 0.43-4.44 1.52-1.02 1.33 1.6 0.86 10.35 0.16 4.63-2.1-4.52-4.76 5.88-5.24 8.39-1.25 7.13-0.9 14.41-1.16 21.62-0.38-7.37 0.02-14.88-1.39-22.13-2.76-4.07-0.88 3.62-4.51 2.13-0.38 2.01-2.14 2.56 1.21 1.77 4 1.85 2.82 8.65-0.44 10.54-0.44 2.36 1.08 4.42-1.58 2.81-4.91 2.97-7.29-4.7-6.34-8.4 2.4-4.34 0.82 4.56 1.86 6.07 1.97 1.8 6.28 0.47 2.79-2.24-1.06-2.58-2.38-6.05-0.18-7.45-2.61-2.94-7.79-2.84-10.42-6.23-5.09 0.16-9.08-5.07-14.08-6.37 0.53 3.13 2.1 6.59 1.31 10.69 0.18 4.52-0.77 2.23-1.05-0.53-0.35-2.47-0.58-3.07-0.6-0.22-0.12 4.58-0.96 9.1-1.93 13.56-0.2-1.62-0.32-8.38-0.95-4.16-0.93 4.39 4.72 9.39 7.4 3.99 3.54-2.71 4.81-9.78 8.32-10.81-1.84 4.23-5.34 7.63-6.8 12.01 1.99 0.73 5.08 1.71 6.81 1.45l0.3-9.48c0.63 3.32 0.21 7.07 2.21 9.94 2.47 1.28 5.06-0.65 4.3 3.7-0.37 2.11 1.2 10.99 2.1 4.76 0.3-2.4-0.28-5.78 0.52-7.59 0.98 5.59 0.37 11.34 1.29 16.94 2.63 1.67 1.73-5.63 2.13-7.73l0.02-0.74zm5.31-4.28c0.57-6 0.76 5.26 0 0zm-12.11-7.92c1.08-5.51 0.83 4.34 0 0zm19.36-1.08c-1.24-5.63-1.49-11.74 0.15-17.3 2.92-2.93 0.11 4.77 0.19 6.37-0.89 2.9-1.53 6.81 2.82 5.18 3.69 0.9-1.95 6.86 0.24 1.91-1.65-0.53-2.2 4.44-2.41 6.54-0.04 0.89-0.84-2.52-0.99-2.7zm-21.36 0.08c1.08-5.51 0.83 4.34 0 0zm-12-5c1.08-5.51 0.83 4.34 0 0zm38.92-20.08c-0.37-5.82-9.56-3.72-7.57-10.19 1.32 1.44 3.8 3.06 6.38 3.34 1.27 2.74 7.7-0.44 6.16 4.87 0.67 2.42-4.8 5.32-4.97 1.98zm24.57 0.25c0.73-2.09 7.35-6.29 3.51-1.73-0.36 0.73-4.36 4.99-3.51 1.73zm-27.57-9.75c2.47-3.85 2.49 3.77 0 0zm-3.75-1.65c-1.63-1.74-2.25-9.12 1.4-5.45 5.72-1.38 3.12 8.31-1.4 5.45zm92.55 57.14c1.01-2.57-2.05-5.45-3.54-5.96 3.38-2.99-2.44-7.41-2.81-11.13-3.66-3.12-6.98 3.3-2.63 5.39 5.55-0.48-1.29 3.45 2.11 6.01 3.49 0.15-0.44 9.03 5.29 6.33l0.74-0.26 0.84-0.38zm-146.8-0.91c0.865-2.22 2.459-2.68-1.04-1.68-4.566-0.04 0.639 5.58 1.04 1.68zm29.6-1.31c-1.93 1.48 1.12 4.07 0 0zm90.4 1.89c-0.03-4.03-9.23-4.91-5.13-0.42 1.11 0.84 4.39 2.32 5.13 0.42zm-111.53-3.01c-2.555-0.68-3.103 4.34-0.55 1.11 0.16-0.32 0.69-0.66 0.55-1.11zm19.13 0.12c-1.93 1.48 1.12 4.07 0 0zm5.58 0.51c-3.25-2.01 1.6 4.46 0.42 0.5l-0.42-0.5zm5.82 0.66c-0.97-3.37-2.64 2.78-0.11 1.04l0.11-1.04zm58.54 0.16c2.35-2.89-8.7-1.09-2.65 1.22 1.06 0.33 1.97-0.57 2.65-1.22zm26.88-0.96c3.46-0.27-3.06-5.9 1.35-3.35 6.07 5.05 1.73-8.89-1.72-3.25-3.67 1.09-5.15 4.07-3.03 7.27-0.1 3.37 2-0.94 3.4-0.67zm-29.74-2.21c2.63 0.81 5.1-5.24 7.04-2.93-2.9 1.45-0.56 1.42 1.08 1.77-1.19 1.39-4.24 5-0.14 3.3 4.22-2.28-0.82-5.82-2.65-7.98-1.18-0.75-2.31-3.83-3.56-1.76-2.68 2.41-5.07 5.27-8.23 7.04-4.89-1.82-5.25 5.19-0.21 3 2.24-0.73 4.11-2.95 6.67-2.44zm-0.35-2.79c0.52-3.02 4.84-3.97 1.84-0.17-0.52 1.22-1.99 2.4-1.84 0.17zm56.51 5.05c1.68-2.13-0.23-9.4-2.83-4.4-1.17 1.7-0.36 8.6 2.83 4.4zm50.89-9.44c-0.64-1.02-0.35 5.38-0.33 7.29 0.47 3.68 0.63-7.08 0.33-7.29zm-205.23 8.75c0.594-3.03-4.435 2.07-0.73 0.71l0.73-0.71zm39.1-1.73c-1.93 1.48 1.12 4.07 0 0zm-10.6 0.79c-1.69-4.91-3 2.75-0.08 0.36l0.08-0.36zm4.54-0.99c-4.79-3.85 1.17 4.55 0 0zm-24.149-0.49c-0.834-2.62-5.475-2.82-1.79-0.11 0.692 0.73 3.132 2.55 1.79 0.11zm27.779-3.89c1.53-4.08-4.9-6.77-6.54-4.18 1.67 3.23 5.31-0.73 4.33 3.76 0.29 3.65-2.83-2.74-1.83 1.66 1.67 0.91 2.81 2.42 3.63 3.72 0.77-1.49 0.43-3.35 0.41-4.96zm177.83 1.84c1.05-3.98-3.99-1.96-3.66-5.86-0.68 2.62-0.43 5.56 2.59 4.9-0.67 1.78 0.74 6.83 1.03 2.31l0.03-0.65 0.01-0.7zm19.66 0.22c-1.5 0.2 0.48 5.11 0.16 0.58l-0.16-0.58zm-218.32 0.08c2.75-3.67-5.686-5.5-1.81-1.4-0.51 1.64-5.401-0.36-2.86 2.9 1.48 1.49 4.22 0.44 4.67-1.5zm9.66 0.83c-0.53-2.59-6.54-5.63-4.27-0.74-0.4 0.83-4.84 0.26-1.18 1.67 1.72 0.13 4.16 0.4 5.45-0.93zm93 0.28c2.99 0.26 0.93-6.78-1.33-6.05 1.93 1.9 2.49 6.65-1.24 3.63-0.4-5.87-6.9 1.34-1.89 2.97 1.24 0.63 3.72 0.94 4.46-0.55zm39-2.65c-2.15-4.24 1.03 7.61 0.66 1.62l-0.26-0.83-0.4-0.79zm74.73-7.04c-0.64-1.02-0.35 5.38-0.33 7.29 0.47 3.68 0.63-7.08 0.33-7.29zm-193.16 1.98c-2.46-0.28-0.46 4.76-0.35 6.73 0.38 3.14 0.41-0.76 0.57-1.98 0.07-1.57 0.33-3.25-0.22-4.75zm189.15-2.5c-0.6-1.1-0.58 8.79 0.01 7 0.21-2.33 0.23-4.68-0.01-7zm-198.72 8.47c-0.92-1.49-2.97-4.45 0.32-2.48 3.97 3.54-3.53-7.88-3.05-1.15-0.66 1.52 0.79 6.48 2.73 3.63zm208-0.26c-1.54-2.12-2.55 2.88-0.08 0.41l0.08-0.41zm-227.5-0.94c-1.462-3.77-4.383 3.39 0 0zm114.77 0.4c2.12-4.26-7.75-7.96-3.94-1.93 0.27 1.8 2.35 3.5 3.94 1.93zm29.36-1.48c3.44-0.98 3.94-4.27 0.46-5.75 1.42 2.32-0.61 6.66-1.56 2.29-4-0.43-0.53-6.99-5.26-7.05 4.83-5.19-5.84-7.7-5.64-1.64 0.97 2.83-2.18-2.71-3.87-0.28-2.36 0.76-7.09 3.05-8.36 1.95 2.14-2.99 8.36-2.09 9.24-5.36-5.22-0.18 0.11-3.93 2.79-2.92 3.95-0.3 0.85-1.78-0.43-2.1-4.83-3.9-8.26 2.6-9.51 6.62-2.21 3.79 0.71-3.59-2.9-1.46-3.72 2-2.8 5.65-2.11 8.76-3.4 0.76-2.9 7.21 0.9 6.15 0.65-2.31-1.45-5.78 1.82-2.42 3.73 1.98 6.78-3.52 4.46-6.51 2.21 0.25 3.45 4.95 6.38 1.55 3.04-2.86 6.61-1.22 5.55 3.01 0.76 2.02 4.08 1.59 2.55 4.87-0.68 4.36 3.89 1.23 5.49 0.29zm80.63-4.59c-0.31-0.83-1.11-5.22-0.96-2.74 0.23 2.49-0.36 5.32 0.89 7.53 1.08-1.14 0.28-3.39 0.07-4.79zm-127.96 2.92c-1.18-3 6.19 4.39 6.21-0.24 1.36-1.6 4.18-2.15 3.3-4.96 1.27 0.55 3.98 2.44 2.27-0.31-2.26-0.21-8.93-0.81-5.65 2.81-2.33 1.36-8.22-0.8-8.83 1.41 0.64 0.66 4.31 5.35 2.7 1.29zm-111.3-0.25c-2.469-3.85-2.49 3.77 0 0zm6.5 0c-0.067-0.81 3.157-3.51 0-2-2.957 0.94-0.383 5 0 2zm4.5-0.06c-1.54-2.12-2.553 2.88-0.079 0.41l0.079-0.41zm16.47-1.76c-1.44-0.85-5.35-6.27-5.32-1.95 1.75 1.36 4.19 3.27 5.38 4.45 0.62-0.7 1.59-2.29-0.06-2.5zm-11.47-1.68c0.59-3.01-2.123-4.63-1.814-0.7-0.628 2.82 1.854 5.98 1.794 1.4l0.02-0.7zm-13.043-1.03c3.042-1.41 0.473-6.47-1.486-1.83-2.301 1.7-0.082 8 0.539 2.76 0.142-0.32 0.386-1.18 0.947-0.93zm29.773-0.16c-1.7-0.79-5.01 0.7-1.23 0.5-0.07 0.07 2.78-0.09 1.23-0.5zm80.27-0.11c-1.2-1.59-2.78-4.65 0.33-2.26 1.2 3.83 6.89-1.61 3.78-3.17 1.91-1.69 3.96 4.04 5.48-0.47 4.04-1.28 8.66-2.78 11.88-6 3.68-0.12 4.49-4.38 7.53-5.37 0.95-1.17 6.16 0.48 2.01-1.47-2.51-0.47-7.49 2.21-6.61-1.97-4.39-0.92-8.98-0.32-13.45-0.49 1.16 2.02 1.92 4.38 3.64 6 4.06 0.74 3.78-7.09 6.44-3.1 4.91 1.46-4.78 2.39-5.03 4.68-0.85 2.54-6.4 0.45-6.42 4.89-1.43 4.1-1.11-2.49-2.96 0.8 1.85 3.64-4.6-2.01-3.78 2.78 2.64 4.25-3.59-1.24-5.42 1.52-5.57 1.73 0.1 5.95 2.58 3.63zm-103-0.59c-2.226-2.88-4.653 0.55 0 0zm149-2.55c0.4-2.08-2.23-5.81-1.81-2-2.6 1.02 1.69 2.88 0.39 4.85 1.37 0.39 1.35-2.01 1.42-2.85zm-33 1.05c-1.14-2.46-4.34-1.9-1.1 0.38 0.33 0.77 1.43 0.5 1.1-0.38zm3.96-4.27c-3.7-2.67-5.28 5.04-2.05 4.21 0.81-1.32 1.63-2.71 2.05-4.21zm-22.48 2.19c2.49-3.82-7.18-7.23-4.68-2.74 2.98 0.85 2.3 3.69-0.38 1.19-2.87 2.41 4.25 3.16 5.06 1.55zm123.41-5.28c0.11-2.17-0.2-7.33-0.95-2.25-0.23 1.98-2.13 8.42 0.45 8.03 0.54-1.87 0.49-3.85 0.5-5.78zm-119.34 0.71c0.99-3.12-3.39-1.04-1.75-4.19-6.13 0.21-2.15 6.85 1.15 6.89 0.45-0.83 0.47-1.8 0.6-2.7zm-10.05 1.54c-3.51-3.73-0.16 3.95 0 0zm12.5-0.06c-1.54-2.12-2.55 2.88-0.08 0.41l0.08-0.41zm42.38-0.49c0.27-3.57-2.73 3.79-0.25 0.58l0.25-0.58zm-103.19-2.31c1.04-6.27-6.86 1.69-1.02 2.58 1 0.94 0.73-2.1 1.02-2.58zm45.37-0.83c-1.22-3.11 4.82 4.22 4-0.7 0.24-4.7-8.55-6.33-6.98-0.92 0.2 1.26 4.15 5.68 2.98 1.62zm20.63-0.64c3.84-0.52 10.02-3.46 4.1-7.32-3.63-1.84-5.87 1.4-3.56 4.19-2.37-1.55-5.13-1.84-7.64 0.1 1.85 1.39 3.33 4.68 5.93 4.01l0.55-0.4 0.62-0.58zm-3.75-1.23c-4.17-3.59 6.4 3.38 0.7 0.55l-0.7-0.55zm44.53-0.94c-1.49-0.92-2.9 6.02-0.59 1.84 0.27-0.58 0.55-1.19 0.59-1.84zm-51.91-0.62c1.81-2.57-2.07-0.31-1.09-3.63-4.91-3.6-6.27 4.57-1.4 5.64 1.21 0.07 1.98-1.08 2.49-2.01zm46.44 1.12c1.32-1.36 0.88-2.46-1.87-2.74-1 0.64 2.04 1.49 0.67 3.3 0.31 0.88 1.89 0.32 1.2-0.56zm-61.64-5.78c-1.91-2.68 4.92 4.44 6.07 0.28 3.22 0.24 8.9-2.72 9.28-5.45-1.85 0.85-5.38 2.35-5.88 1.51-0.58-0.91-0.7-5.73-1.56-2.81-0.68 1.74-1.75 4.23-2.25 0.76-5.15-2.92 1.79 4.93-1.54 3.64-1.25-0.83-2.48-4.91-3.52-1.97-2.19 1.77-2.71 7.27 0.3 7.03 0.24-1.06-0.3-2.15-0.9-2.99zm19.45 0.32c4.98 1.76 2.97-6.35 0.12-4.24 0.8 1.5 2.65 4.69-0.47 2.16-2.78-3.07-0.63 0.86-1.38 1.35-3.35-4.15-1.24 2.96 0.23 1.73 0.11-0.66 0.81-1.27 1.5-1zm35.69 0.08c-1.66-2.31-4.36-3.41-1.24-0.34 0.01 0.08 1.28 1.33 1.24 0.34zm-26-3.61c-2.09-2.54-5.69 3.19-5.36-1.83-2.21 4.6 3.18 5.27 5.36 1.83zm-76.08 1.63c-1.15-1.97-7.58-2.63-3.17-0.33 0.51-0.02 3.21 1.07 3.17 0.33zm7.38-2.27c2.11-1.98 5.97-0.75 6.46-4.37 3.57-4.3-5.69-4.99-8.81-4.91-5.26-0.43-10.72-0.2-15.79-1.73-3.84-5.09-6.58-11.83-12.88-14.32-4.3-3.3 1.06-2.25 2.68-0.11 4.93 3.35 8.22 8.43 12.64 12.32 5.45 1.97 1.87-7.89-2.27-5.85 1.45-4.07-5.57-5.67-5.78-6.49-0.02-3.64-9.81-2.51-4.11-5.91 4.01-1.64 3.81-6.46 0.54-8.68-1.33-0.61-3.12 3.08-3.5 4.48 1.07 4.42-0.26 2.08-2.87 1.33-1.16 1.36 1.64 6.84-1.65 3.31-1.27-4.07-5.801-6.07-6.416-10.82 1.645-2.77-4.014-6.63-2.351-7.39 3.059 2.41 6.087 8.62 9.517 2.95 3.39-2.33 5.83-5.9 1.39-8.68-1.56-3.06-4.29-2.63-4.77-0.05-2.77-2.06-6.751-8.07-10.245-5.44-0.543 4.78 2.69 8.98 2.395 13.77-0.263 3.77 3.78 8 2.692 11.04-1.203-4.43-2.809 1.58 0.847 1.39 2.091 1.72 4.071 5.79-0.256 4.6-1.69 1.67 2.166 0.25 2.894 1.79 2.153-0.12 1.209 4.13 3.623 5 2.02 2.25 1.67 9.2 4.72 8.68-1.74-4.63 1.55 1.83 1.9 3.54 2.95 2.21 10.2 3.57 9.67 7.68-3.57 2.39 2.96 1.48 1.69-1.46 2.99 4.4 9.17 3.15 13.13 5.75-0.7 2.58 4.55-0.48 4.91-1.42zm-15.8 0.63c-3.51-3.73-0.16 3.95 0 0zm51.34-5c3.83-1.4-0.34-9.8-1.25-6.09 3.46 0.95-0.21 6.16-1.47 1.76-0.09-4.92-5.04-1.44-2.43 1.74 1.06 2.38 2.59 8.13 4.7 3.19l0.45-0.6zm18.1-2.47c2.36-0.3 5.01-5.3 2.24-4.99 1.13 2.8-2.59-3.67-3.81-0.08-2.1 1.83-8.68 7.53-1.86 6.19 1.19-0.22 2.35-0.57 3.43-1.12zm18.06-1.53c-2.47-3.85-2.49 3.77 0 0zm-102.82-2.22c-3.25-2.01 1.6 4.46 0.42 0.5l-0.42-0.5zm80.95-1.53c2.76-3.81-5.04 4.12-0.57 0.68l0.57-0.68zm11.1-2.79c-0.19-3.27-2.87-5.11-4.37-1.25-0.38 2.74 6.16 9.06 4.88 3.06l-0.21-0.85-0.3-0.96zm15.25 3.5c0.78-1.88 5.54 1.33 3-1.93-1.53-0.79-3.61-1.52-3.74-4.2-3.47-5.76-5.32 6.39-2.99 4.15 1.28-3.95 4.02 6.32 3.73 1.98zm17.52-0.46c0.14-1.64 3.66-2.35 0.08-2.03-3.53-0.07-3.15 5.61-0.2 2.61l0.12-0.58zm-101.91-2.81c-3.01-3.03-6.24 4.93-1.56 2.12 0.69-0.36 2.41-1.11 1.56-2.12zm39.53 2.31c-0.58-2.41-2.61-5.5 0.75-2.14 4.14 1.58-4.03-7.95 1.17-5.22 3.91-0.53-3-2.94 0.8-5.04 2.84-3.42 7.52-4.29 11.2-6.41 3.09-0.36 5.7 0.1 3.73-2.7 2.35 1.51 3.85 3.99 5.73 6.01 2.46-2.77 5.48-5.37 6.41-9.06 3.43 0.15 4.02-5.85 0.29-2.12-2.8 1.34-0.96 6.87-4.82 3.64-3.28-0.96-0.71-7.45-4.86-3.64-1.75 1.07-3.84 3.32-0.19 2.08 3.19-0.39 4.13 3 0.26 2.19-5.49-0.38-11.72 0.62-15.69 4.7 0.79 4.97-5.99-1.49-5.68 2.79 2.02 1.19 2.83 5.57 0.13 2.06-1.57-5.44-10.26-0.07-4.45 3.04 2.17 2 5.3 5.48 0.1 5.3-5.5 1.02 2.35-1.22 0.92-2.64-1.79-1.85-3.15-4.3-5.45-5.51-1.06 2.29-4.63 0.96-1.52-0.47 2.78-4.69-6.56-4.74-3.86-9.67-4.46-0.76-3.86-4.74-0.01-5.85-2.88 0.46-7.38 0.95-4.64 4.85 4 8.37 8.44 16.9 15.27 23.32 1.37 1.49 2.77 1.01 4.41 0.49zm37.38-1.34c1.33-0.57-4.07-0.86-4.92-0.95 0.13 3.34-3.2-3.22-1.5 0.85 1.18 1.17 4.34-0.15 2.5 2.43 1.32-0.73 2.48-1.79 3.92-2.33zm16.14-0.54c-3.39-2.4 1.6-4.38 2.81-2.45-1.79-5.27-8.34-0.2-5 3.84 0.92 1.81 5.83 0.41 2.19-1.39zm7.46-2.85c-3.08-1.41 0.38 5.61 0.31 0.8l-0.1-0.46-0.21-0.34zm-12.41 1.05c-4.94-0.99 0.98 2.08 0 0zm-80.72-2.11c0.91-2.53-3.91 2.92-1.92-1.54 1.03-3.95-1.8-1.98-3.21-1.24-2.26-2.26-1.49 6.78 2.34 4.3 1.03-0.17 2.26-0.51 2.79-1.52zm65.6-1.67c2.36-1.48 0.5-6.49-2.03-2.43-2.48 1.85-2.51 6.18-0.03 3.43 0.47 4.77 0.12-0.83 2.06-1zm-73.55-4.51c-2.8-2.99-4.1 1.94-5.48 3.32 1.18 6.69 5.9-0.33 5.48-3.32zm90.48 6.04c-1.12-1.42-7.2-5.84-6.82-2.81 0.93 1.11 6 5.27 6.82 2.81zm17.55-1.16c0.57-2.48-2.58-3.91-1.19-0.39-2.54 1.97 0.02 1.79 1.19 0.39zm-26.93-3.16c-1.08-1.73 2.28-8.07 0.23-6.98-1.89 2.48-0.65 7.53-3.49 7.9 1.76 3 3.85 2.92 3.26-0.92zm17.57 2.57c-4.94-0.99 0.98 2.08 0 0zm-103.21-4.69c-0.66-2.04-2.53-4.93-3.99-5.85-0.89 1.38-5.16 5.98-3.27 1.98 3.23-1.52-4.24-7.99 1.06-4.58 3.86 2.95 2.13-10.62-1.67-5.32 1.97-3.91-0.76-3.45-2.75-3.64-0.16-3.19-3.59-5.66-3.73-8.78-3.02 2.04-4.71 5.21-0.84 7.48 2.25 2.47 4.44 5.85 6.68 7.07-1.35 3.34-7.1 6.67-1.28 9.14 2.72 1.58 7.95 8.98 9.79 2.5zm-25.191 0.97c-4.376-3.53 1.881 4.16 0 0zm39.811-1.33c-1.93 1.48 1.12 4.07 0 0zm59.9 0.73c4.44-5.19-4.7 2.96-1.43 1.41l0.69-0.63 0.74-0.78zm22.75 1.32c-2.99-0.71-2.31-3.12-0.74-4.23-0.32-3.55-6.83 1.96-4.72-3.23-2.14-1.11-3.29-5.27-4.83-6.14-1.62 4.37 1.59 8.79 3.53 12.53 0.83 1.89 7.28 1.7 6.76 1.07zm-84.87-1.86c-0.34-2.28-7.07 2.26-4.19-2.55 0.42-2.95 1.77-9.13-0.93-10.26-0.36 3.94-2.41 7.41-4.27 10.84 2.46 2 5.8 4.4 8.98 2.55l0.41-0.58zm90.6-0.21c0.22-3.99-4.89-3.3-2.68-0.04 0.66 0.39 2.53 1.47 2.68 0.04zm14.51-1.24c5.43-4.09-6.44-6.24-4.56-0.54-2.12-1.74-5.17-6.71-9.32-7.34-5.16-0.51-0.39 3.15 1.75 3.77 3.45 3.92-2.37 0.52-3.7-0.68-1.15 2.94 4.02 6.06 5.37 4.65 0.58-1.11 3.65 2.99 5.99 1.59 1.56-0.13 3.21-0.46 4.47-1.45zm-114.2-6.02c-0.7-2.36-4.38-2.18-4.15-3.58-1.03 1.37-0.15 2.71-2.1 3.29 0.41 3.81 6.53 7.49 6.34 1.17l-0.09-0.88zm36.71 2.92c3.77-0.41 8.23-2.13 11.88-4.17 3.31-0.97 9.47-5.64 3-7.17-2.12 0.71-5.41 0.12-1.94-1.48 5.16-0.68-2.64-7.04-5.15-3.43-4.39 2.7 2.34 5.74 3.21 8.34 2.27 1.55 0.22 4.4-1.18 1.01-1.95-2.87-9.54-0.13-4.67 2.78 2.92 4.9-6.92-5.01-5.78 1-0.76 1.91-9.33-0.96-4.11 2.43 1.27 2.14 1.47 3.75 4.74 0.69zm59.89-0.15c0.41-5.04-5.76-7.57-8.55-11.14-1.52-1.51-6.68-7.16-4.93-1.68 1.54 4.7 5.51 7.44 9.58 9.65 2.41 0.94 1.79 8.52 3.9 3.17zm21.71-0.49c-3.08-1.41 0.38 5.61 0.31 0.8l-0.1-0.46-0.21-0.34zm-108.6-3.33c-2.59-3.7-2.32 5.25 0 0zm103 1.2c-1.59-1.73-7.91 1.26-2.5 0.86 0.78-0.11 2.11 0.03 2.5-0.86zm5-0.2c-1.54-2.12-2.55 2.88-0.08 0.41l0.08-0.41zm-9-1.94c-2.15-0.64 2.8-2.41-0.92-2.39-3.85 1.25 0.61 4.98 1.64 2.89l-0.72-0.5zm9-1.11c-1.33-3.16-4.13 3.99-0.43 0.8l0.32-0.41 0.11-0.39zm-141.45 0.04c0.62-3.35-7.544-9.02-4.913-2.62 0.823 1.21 3.383 5.29 4.913 2.62zm55.73-0.68c-1.2-3.11 4.68 3.38 4.39-1.42-1.38-2.63-4.91-5.01-6.69-2.36-3.34-1.85-0.21 3.32-3.31 1.96 0.67 1.13 6.66 6.03 5.61 1.82zm-29.4-2c0.5-3.47-2.16 1.17-2.4 1.36 1.98 1.92 2.88 1.34 2.4-1.36zm97.91 1c-0.43-3.15-8.79 0.17-3.69-3.25 2.43-2.62-4.15-6.49-5.74-2.52-3.18 4.21 5.16 5.16 7.16 7.4 1.08 0.52 2.63-0.31 2.27-1.63zm15.25-0.33c2.39-3.96-5.18 2.67-2.55-2.45-4.46-1.39 0.56 8.52 2.55 2.45zm-9.49-1.85c-2.76-2.6-8.34 0.6-3.04 2.17 1.1-0.01 3.59-0.59 3.04-2.17zm-142.95-0.8c-1.936 1.48 1.118 4.07 0 0zm16.396 0.73c1.97-3.58-2.05-8.44-4.94-4.02-3.25 1.58 4.09 9.02 4.94 4.02zm18.88-0.75c0.07-3.78-1.29 2.18-3.65 0.34-0.61 3.28 4.38 3.28 3.65-0.34zm13.48 1.25c-2.84-5-0.31 5.16 0 0zm29.7 0.47c3.63-3.38-2.72-5.71-5.73-5.03-1.82-0.05 3.27-2.15 4.04-2.46 3.95 0.8 8.84-3.95 3.54-6.19-4.16-1.33-7.48 1.94-3.95 5.06-2.25-1.66-8.09-4.61-8.78 0.2 2.65 2.97 4.3 6.49 7.33 9.09 1.18 0.69 2.49-0.15 3.55-0.67zm18.01-1.01c5.89-4.05-3.96-8.63-4.99-2.11 0.62 2.32 2.83 4.06 4.99 2.11zm8.32-1.53c0.49-2.59 6.97 0.67 2.65-1.7-2.44-1.87-7.43 4.41-3.28 2.7l0.35-0.45 0.28-0.55zm42.38-1.24c-0.37-1.85-4.42-0.83-1.17-3.34 3.44-4.07-5 1.27-1.83 4.26-0.05 2.27 2.73-0.09 3-0.92zm-89.35-1.06c-2.22-2.68-3.36-0.6-0.49 0.8 2.12 1.5 2.71 1.29 0.49-0.8zm10.01 0.99c-0.11-2.97-4.82-6.07-1.87-8.06-3.74-0.25-2.24 5.25-4.53 7.11 1.33 1.04 3.67-0.08 4.96 1.8l0.79-0.21 0.65-0.64zm70.82-0.51c2.2-1.25 1.93-3.51 0.1-4.23 0.41-5.15-8.65 0.57-4.08 4.03 0.78 2.21 2.68 1.4 3.98 0.2zm-101.69-1.14c-1.18-2.33-5.65-1.06-2.18 0.58 1.47 0.43 5.54 1.49 2.18-0.58zm66.44-0.58c1.15-1.47 4.66-0.93 0.65-2.07-1.71 1.11-4.63 0.15-5.65 1.63-0.03 2.6 4.5 2.63 5 0.44zm-49.23-0.09c-1.15-2.65-7.9-3.01-4.02 0.71 0.97 0.6 4.05 1 4.02-0.71zm41.22-2.88c-1.8-4.36-6.97-5.81-8.85-0.63 1.41 5.85 5.91 3.82 8.85 0.63zm33.02 2.33c3.41-3.36-3.16-8.96-5.42-3.62-3.38 3.51 2.88 7.58 5.42 3.62zm-68.18-4.37c-1.13-6.48-7.66 1.51-2.36 3.33 2.19 1.06 2.73-1.84 2.36-3.33zm58.17 2.27c-2.95-3.38-4.15-7.49-6.6-11.06-1.15 0.47-5.21 4.9-3.61 0.91 5.03-1.77-1.19-3.8-0.09-5.85 2.12 1.31 4.71 2.88 5.24-1.03 1.35-2.92-1.33-7.35 3.69-5.76 5.82-1.43 0.53-7.23 0.93-8.95 1.7 3.01 4.53 4.12 7.37 1.74-3.45 2.35-1.81 5.68 0.27 8.28 0.76 2.57 1.92 0.87 3.05-0.47 4.25-1.65-3.37-10.25 2.28-6.52 2.73-1.78-0.39 4.7 2.76 1.87-0.32-3.33-3.91-7.12-6.89-4.35-1.62-1.28-3.03-3.85-4.24-5.45 1.78 0.57 7.56 5.83 5.89 0.45-1.84-0.34-2.06-0.14-2.02-2.24-5.18-1.52-9.11 3.94-10.99 8.02-1.22 1.25-6.8 1.37-4.49 3.99 5.11-3.99-0.45 3.79-2.67 4.56-2.83 0.74 5.65-4.9-0.11-4.87-3.65 0.93-7.46 3.76-3.8 6.89-1.89-0.81-4.88-4.22-7.39-0.79-4.94 2.71 3.43 4.14 4.06 3.87-4.68 3.53 4.23 7.2 6.12 10.08 3.46 2.53 6.65 6.65 11.01 7.26l0.17-0.23 0.06-0.35zm-14.58-14.56c-1-2.48 2.61-4.79 3.38-5.14-1.5 2.25-0.78 7.46-3.01 8.17-0.4-0.96-0.36-2.02-0.37-3.03zm39.08 12.41c-0.87-2.46-3.36-0.76-3.44-3-3.45 2.13 2.6 2.95 1.35 4.81 1.77-1.4 2.47 3.13 2.31-0.93l-0.22-0.88zm-33.5 1c-2.52-1.11 2.32-1-0.65-2.82-3.87-3.19-7.17-7.11-11.31-9.95-2.57-0.54-2.08-7.28-5.98-4.32-3.16 3.86 5.82 4.52 2.46 7.45-4.41-0.35-3.72-6.65-7-9.36-1.4-2.03 5.52 3.74 4.39-1.23-2.56-3.88-7.79 2.52-10.33-1.77-1.75 1.34-2.62 9 0.13 8.33 1.35-1.17-0.49-7.5 1.94-3.4 1.81 1.28 5.97 1.07 1.95 3.26-2.49 1.01-8.1 2.27-3.62 5.29 2.3 1.88 1.01 9.64 5.94 5.75 4.61-1.56 0.77-6.36-2.72-4.33 1.95-1.87-0.31-6.82 3.49-3.14 0.85 3.85 5.84 3.26 7.3 5.95-4.53 1.69 4.36 4.63 6.49 2.79 1.85-0.9 0.03-3.97 3.17-1.52 4.01 2.1 0.18 1.76-1.28 2.54 0.41 1.1 7.8 2.52 5.63 0.48zm-11.86-6.03c-5.24-5.27 7.24 3 1.96 1.39-0.69-0.41-1.34-0.88-1.96-1.39zm53.86 6.03c-2.91-4.16-1.12 3.61 0 0zm-28.77-2.22c2.14-2.62-0.22-8.96-2.86-9.25-4.38 2.75-3.75 9.02 0.59 11.33 1.11-0.09 1.67-1.3 2.27-2.08zm11.86 0.64c3.57-3.9-4.83-7.97-7.7-4.07 0.12 2.14 5.52 7.96 7.7 4.07zm-137.42-1.88c-1.15-3.43-2.231 3.8-0.066 0.57l0.066-0.57zm73.323 0.49c4.06-4.18-10.06-2.74-3.72 0.14 1.19 1.1 2.57 0.75 3.72-0.14zm75.35 0.22c0.01-3.38-4.02-2.88-1.84 0.39 0.54 0.72 1.51 0.31 1.84-0.39zm-152.74-5.75c0.999-3.38-1.272-4.48-3.596-5.42-0.232-2.03-1.977-4.45 0.909-3.78 0.56-2.22 4.242 4.66 3.654-0.44 0.297-4.53-2.531-12.44-7.628-6.86-0.555 0.81-4.269 2.39-2.48 2.64 2.362 0.38 5.857 0.71 2.12 2.73-0.678 4.35-1.459 9.63 0.976 13.52 2.553 1.59 7.575 3.45 6.026-1.49l0.019-0.9zm87.034 2.01c1.78-2.46-0.48-1.85-1.37-1.25-1.86-1.01-4.56-6.44-4.43-1.74-4.38 5.42 2.65 6.66 5.8 2.99zm59.63 0.89c0.94-4.01-6.15-11.11-5.81-3.46 0.56 2.22 3.45 5.28 5.81 3.46zm-80.77-4.36c0.31-2.31 5.92-5.63 3.8-6.94-3.12 2.38-5.07 7.09-6.87 9.64 1.4-0.3 2.59-1.35 3.07-2.7zm69.59 1.39c4.05-3.13-4.32-10.88-5.85-4.33-0.38 2.98 2.77 8.31 5.85 4.33zm-10.76-2.65c4.4-4.05-3.85-7.34-4.81-2.12-1.3 3.93 3.01 7.9 4.81 2.12zm-61.32-0.9c-1.49-2.3-2.96 4.14-0.29 0.89l0.29-0.89zm11.22 0.56c3.78-0.28 10.91-6.29 5.41-8.87-3.95 0.07-1.67 10.82-4.16 4.73-2.59-3.24-10.69 6.12-5.41 5.43 1.4-0.38 2.79-0.82 4.16-1.29zm-21.22-0.94c2.02-1.73 2.18-7.75 0.08-8 1.09 3.79-3.6 4.02-4.95 5.4 0.3 1.72 4.1 6.46 4.87 2.6zm-36-0.5c-2.911-2.58-6.765-5.17-9.376-8.49-3.288-1.7-1.409-7.57-4.218-8.26-2.72 4.32-0.686 12.7 4.705 13.82 0.581 2.74 6.744 5.11 8.889 2.93zm123.58 0c0.86-2.52-1.4-5.5-2.24-8.11-0.5-2.97-2.38 1.31-3.12 2.19-1.47 3.55 1.25 8.43 5.36 5.92zm6.42-2.12c-1.49-2.3-2.96 4.14-0.29 0.89l0.29-0.89zm-16.56-1.21c3.46-2.61-3.01-10.92-5.46-4.81-1.6 2.93 2.24 8.52 5.46 4.81zm-108.95-1.42c-1.73-2.46-0.9-4.96-0.35-6.62-1.82-2.59-4.95-5.23-7.703-5.91 3.463 4.41-3.456 0.89-4.755-0.59-1.22 2.92-3.468 6.8 0.818 7.87 2.258 1.53 3.926 1.39 4.374 4.53 2.826 3.07 3.306-2.55 3.876-2.13 1.71 1.69-2.31 5.73 2.54 4.58 1.11 0.08 1.94-0.62 1.2-1.73zm-7.049-5.72c-3.712-4.41 5.829 3.14 0.849 0.62l-0.849-0.62zm2.799-1.52c-3.886-5.1 3.84-0.69 2.43 1.91-1.13 0.36-1.85-1.24-2.43-1.91zm-7.484 0.33c0.961-1.16 0.393-3.49 1.794-0.73 0.449 1.41-3.914 1.77-1.794 0.73zm56.634 7.08c3.29-6.38-7.99 1.26-1.82 1.53 0.82-0.15 1.53-0.75 1.82-1.53zm77.02-2.17c0.58-2.69-2.67-6.52-3.65-2.3-0.51 2.9 4.26 9.25 3.78 3.18l-0.13-0.88zm-69.16 1.36c2.56-1.7 2.31-9.65-0.89-4.12-4.3 0.28-3.42 8.39 0.89 4.12zm-11.8-0.77c7.13-2.07-5.69-6.45-3.74-0.84 0.15 2.93 2.07 1.61 3.74 0.84zm-6.5-3.4c-4.48-3.98 2.3 6.78 0.45 0.66l-0.45-0.66zm49.87-0.04c0.04-5.89-9.06-4.54-9.36-0.75 2.34 4.65 5.96 3.83 9.36 0.75zm-24.57-0.21c1.95-1.5 1.44-6.61 4.33-2.66 2.06 2.58 6.24 6.16 7.6 0.98 0.2-3.54 7.76-6.44 3.18-9.13-3.02 0.54-4.01 4.16-4.34 6.11-2.01-1.74-4.88 3.4-3.37-0.88 0.62-4.37-4.99-7.36-7.23-2.69-2.88 2.08-6.6 8.31-3.12 10.43 1.11-0.53 2.01-1.38 2.95-2.16zm-13.75-0.19c0-1.74-4.44-0.6-0.88-2.6-1.59-0.25-9.16 0.69-3.47 2.43 1.28 0.41 3.43 2.04 4.35 0.17zm43.95-2.16c6.2-2.08-2.99-8.3-5.49-3.59-3.26 3.97 2.84 5.89 5.49 3.59zm47.55-5.67c-2.06 0.01-7.5 8.03-3 3.99 1.07-1.26 2.26-2.5 3-3.99zm-91 2.85c-1.1-2.48-9.53-2.72-6.18 0.37 1.94 0.24 4.46 0.7 6.18-0.37zm49-0.9c1.46-1.54 5.88-2.18 1.97-4.48-4.03-3.04-8.47 4.72-2.88 5.37 0.47 0.01 0.96-0.39 0.91-0.89zm-40.66-2.33c1.23-3.8-1.12-2.11-2.3-1.54-0.68-4.58-2.45 2.84-0.04 2.69 0.11 2.52 2.37-0.05 2.34-1.15zm29.49 0.92c6.5-2.09-4.18-7.51-4.1-1.48-2.19 4.5 2.02 2.33 4.1 1.48zm-100.83-2.7c-2.037-3.55-7.364 0.06-2.208 1.35 0.862 0.05 2.166-0.28 2.208-1.35zm64.44-0.63c2.61-6.44-8.9 0.07-6.49 2.38 2.31 0.35 6.17 0.92 6.49-2.38zm10.56 1.66c0.51-1.78 6.17-6.17 1.09-5.02-1.32 0.84-5.07 8.62-1.09 5.02zm13-1.04c5.02-3.12-3-9.03-5.36-3.72-3.27 2.04 2.18 3.12 2.01 5.62 1.36 0.14 2.43-1.07 3.35-1.9zm31-1.24c2.92-2.53 0.08-4.61-2.75-2.97 4.67-2.9-4.55-8.76-5.55-2.53-0.48 4.45 5.7 1.59 4.6 6.3 1.05 2.96 2.58 0.47 3.7-0.8zm-22.18-1.27c3.33-2.34 1.96-6.61-1.35-2.73-3.35 1.6-2.7 8.06 0.89 3.24l0.46-0.51zm12.44 1.26c4.11-2.98-6.97-7.88-3.89-3.64-0.69 1.86-6.87-0.13-3.62 2 2.11 1.85 4.87 4.24 7.51 1.64zm-14.36-4.82c1.3-1.07 3.42-2.12 1.01-3.29-2.26-4.24-8.69-1.3-7.41 3.11 1.42 3.14 4.46 2.2 6.4 0.18zm25.1-3.32c-1.7-3.78-4.62 1.34-0.94 1.8 0.71-0.26 0.94-1.12 0.94-1.8zm-9.5 0.1c3.82-1.71 1.38-10.2-1.34-4.38-1.12 2.32-4.49 8.33 1.34 4.38zm-4.5-6.48c-0.08-6.22-5.4 5.62-0.6 2.71 0.47-0.82 0.59-1.79 0.6-2.71zm9 2.71c-1.54-2.12-2.55 2.88-0.08 0.41l0.08-0.41zm-30.59-1.09c0.4-1.62 4.28-3.79 0.25-2.02-2.05 0.86-4.76 3.82-0.52 2.53l0.28-0.23-0.01-0.28zm24.41-5.21c-1.2-0.61-4.79-4.21-4.84-3.68 1.07 1.34 3.17 6.24 4.84 3.68zm-80.82-4.64c2.13-4.1-2.16 0.22-1.57 2 0.77-0.4 1.12-1.32 1.57-2zm69.6-12.73c-1.93 1.48 1.12 4.07 0 0zm-0.6-2.48c-1.63-3.08-4.33 5.55-0.87 1.61 0.38-0.47 0.81-0.98 0.87-1.61zm-4 1.15c-1.54-2.12-2.55 2.88-0.08 0.41l0.08-0.41zm-3-17.5c-2.72-2.22-2.45 3.96 0 0zm-9-10.499c-1.54-2.117-2.55 2.874-0.08 0.411l0.08-0.411zm45.59-60.684c-2.8-1.037-3.31 4.623-0.51 1.196 0.19-0.322 0.75-0.739 0.51-1.196zm3.22-8.195c-0.73-3.46-4.78 4.135-0.69 1.056l0.42-0.511 0.27-0.545zm-141.8 407.43c2.541-3.8 3.784-8.71 4.631-12.98 0.725-3.96 1.594 2.35 0.357 3.77-0.922 3.67-1.376 8.91-4.207 11.23-2.645 0.51-2.63-0.42-0.781-2.02zm6.552 1.22c3.292-4.45-0.835 3.86 0 0zm17.436-0.71c2.47-3.85 2.49 3.77 0 0zm15 0.06c2.58-5.53 0.95 3.45 0 0zm-25.351-2.59c0.734-2.52 6.83-4.72 2.743-0.89-0.683 0.61-4.041 4.45-2.743 0.89zm13.351 0.15c1.17-1.3 4.47-3.32 5.32-3.73-1.36 1.29-3.6 5.02-5.32 3.73zm-20-2.62c4.76-6.66-2.392 6.41 0 0zm29 1.16c0.36-2.09 3.87-6.19 2.86-1.64-0.03 1.07-2.03 2.96-2.86 1.64zm9.63-0.91c-0.34-3.98-9.1-0.86-3.38-4.52 3.01-1.05 5.01-4.24 6.66-6.17-0.14 3.89-4.87 6.24-2.08 10.42-0.02 1.92-0.66 2.38-1.2 0.27zm-80.325-2c1.031-4.84 1.953-9.86 4.459-14.17-0.326-3.86-4.731 2.83-6.212 3.74-3.683 1.81 1.511-4.67 3.208-5.17 4.519-2.29 5.821-7.1 7.5-11.43 1.333-3.19 1.365-0.94 2.663-0.33 1.658-1.01 2.721-7.3 2.662-2.15-0.073 2 0.458 3.83-1.531 3.24-1.841 3.2-1.858 0.86-2.539-0.66-2.734 2.92 1.845 4.52 3.126 3.34-0.148 3.04-6.876 1.43-5.2 4.95 2.119-1.98 3.435-1.1 1.059 1.03-1.543 1.62-2.01-1.22-2.819 2.08-0.401 3.6-6.407 9.33-1.86 11.76 0.411 2.78-2.947 4.4-3.935 6.52-1.111-0.29-0.667-1.93-0.581-2.75zm6.773-0.14c3.271-4.42 9.491-5.17 12.021-10.21 1.399-1.52 2.678-2.84 1.444-0.02-1.824 3.88-5.027 7.06-8.281 9.79-2.19 1.14 0.173-4.13-2.537-0.54-0.813 1.47-6.016 6.01-3.14 1.67l0.493-0.69zm53.422 0.77c3.3-3.32 7.9-4.33 11.33-7.55 1.97-1.39 4.21 2.3 0.83 1.08-4.88 1.71-8.11 6.78-13.47 7.4 0.34-0.44 0.89-0.61 1.31-0.93zm-13.5-0.26c1.657-2.31 4.361-3.41 1.244-0.34-0.013 0.08-1.282 1.33-1.244 0.34zm6.587-1.99c2.316-2.02 2.669-5.78 6.243-5.72 2.04-2.32 2.7-1.36 0.54 0.53-1.93 1.61-4.719 5.31-6.783 5.19zm99.113-0.67c-0.09-3.53-8.97 0.54-3.08-2.68 3.79-0.88 6.17 4.35 9.99 0.84 3.12-1.13 5.9 1.46 8.23-1.98 1.87 0.88-3.86 4.92-5.7 2.6-3.06-0.73-7.85 6.46-9.44 1.22zm-108.7 0.66c1.657-2.31 4.361-3.41 1.244-0.34-0.013 0.08-1.282 1.33-1.244 0.34zm-3-1c1.657-2.31 4.361-3.41 1.244-0.34-0.013 0.08-1.282 1.33-1.244 0.34zm79.28-2.54c-2.86-4.35-9.92 1.58-12.45-2.69-1.07-1.59-0.16-6.82 0.29-2.15 2.32 5.86 9.01-2.14 11.94 2.6 1.48 0.8 2.58 5.41 0.22 2.24zm4.95 0.73c1.51-3.58 4.56 0.14 0.56 0.75-0.45 0.19-0.83-0.39-0.56-0.75zm9.79-1.27c-0.83-3.98-3.56-1.63-5.43-0.66 1.46-4.28 7.1-3.02 8.4 0.52 5.74-1.79-3.24 5.27-2.97 0.14zm36.06 1.04c1.08-5.51 0.83 4.34 0 0zm24.48 0.13c3.3-4.45-0.83 3.86 0 0zm-188.81-0.77c2.44-3.21 0.628-4.25-1.59-1.32-1.04-2.79 7.01-3.72 3.87-5.14-1.961 0.67 2.229-6.15 1.992-1.43 2.554 3.27 3.884-6.12 5.659-4.47-2.89 1.42 0.083 6.24 0.393 1.97 0.74-3.2 6.973-2.92 4.123 0.24-2.216-1.15-5.979 2.26-1.606 0.54-1.834 1.84-6.77 4.94-9.598 7.41-0.767 0.54-3.026 2.46-3.243 2.2zm40.961-1.94c0.949-3.63 7.133-0.53 1.902 0.77-0.902 0.51-2.855 1.21-1.902-0.77zm97.789 1c0.48-3.64 2.86 3.14 0 0zm-123-3.79c1.2-2.69 9.778-1.82 4.567-0.14-0.506-0.42-5.722 1.92-4.567 0.14zm18.535-0.27c-0.117-2.02 3.938-8.85 2.648-2.99-0.154 0.81-2.245 5.05-2.648 2.99zm11.965 0.17c1.145-2.46 4.34-1.9 1.096 0.38-0.322 0.77-1.43 0.5-1.096-0.38zm-17-0.55c2.066-3.61 2.715 1.87 0 0zm89.08-1.98c1.08-5.51 0.83 4.34 0 0zm-7.55-1.66c1.18-3.5-3.34 0.86-4.77 1.47-0.04-1.78 2.19-5.26 0.25-5.91-2.81 1.7-6.2 1.91-5.02-2.37 0.64-3.79-7.42 1.63-3.24-2.68 5.02-3.02 3.31 4.23 5.26 4.89 2.14-2.39 5.98-2.22 5.07 1.79 1.61 0.86 4.27-2.21 4.43 1.45 6.19-0.38-3.74 6.28-1.98 1.36zm-78.72-2.42c0.682-2.23 2.933-6.41 1.71-1.77-0.197 0.87-3.531 5.3-1.71 1.77zm50.63 0.4c1.96-0.68 6.07 0.08 8.62-1.58 5.28 2.77-3.71 2.51-5.72 2.31-0.97-0.14-2.07-0.1-2.9-0.73zm13.29 0.44c2.6-0.87 4.99 0.94 0.7 0.44 0.13 0.1-1.56-0.16-0.7-0.44zm37.27-0.17c0.55-2.77 7.83-6.83 7.8-5.28-3.36 0.68-4.9 6.03-7.72 5.72l-0.08-0.44zm-111.25-2.36c2.695-3.27 4.129-0.04 0.65 1.39-2.676 1.91-2.13-0.22-0.65-1.39zm-28.75-0.81c4.76-6.66-2.392 6.41 0 0zm44.564 0.71c3.292-4.45-0.835 3.86 0 0zm28.436-0.7c-2.1-0.14-7.47-3.89-3.61-4.89 0 3.8 6.11 2.33 6.01 5.77-0.89 0.02-1.65-0.48-2.4-0.88zm7.25 0.27c1.72-0.58 8.99 0.25 3.8 0.41-0.39-0.06-5.7 0.19-3.8-0.41zm11.89-1.95c0.41-2.28-3.65-5.81 0.13-3.46 1.38 1.25-0.11 8.52-0.13 3.46zm-75.113 1.13c0.663-2.06 5.008-7.87 5.678-6.3-1.431 2.19-3.364 5.53-5.678 6.3zm80.973-0.57c-0.94-1.47-4.43 0.98-1.54-1.85 2.48-3.46 3.82-1.13 3.03 1.68 3.75-2.08-1.39 3.56-1.49 0.17zm-11.86-4.06c0-4.65 0.72 1.53 2.77 0.75-0.59 3.63-3.23 2.24-2.77-0.75zm78.35 1.79c-1.71-1.89-2.06-5.46 1.13-4.28-1.12-4.21 7.16-1.08 3.03 1.32-2.81-6.19 0.92 7.57-4.16 2.96zm-107.99-0.62c-1.595-1.6-5.638-0.83-6.744-1.25 2.843-1.27 5.989-2.27 7.974 0.84 1.41 0.5 8.41-1.23 3.77 0.75-1.52 0.47-3.81 1.14-5-0.34zm-53.628-1.76c0.648-1.76 6.756-7.25 3.099-2.53-0.483 0.72-5.349 7.1-3.099 2.53zm44.128-0.67c-2.44-2.03-6.078-3.44-5.986-7.71-1.915-4.88-9.081 5.36-11.125-1.5 0.002-7.99-8.359 0.73-11.372-4.49-0.605-1.94 5.299 1.62 7.235 0 4.326-1.46-2.657-2.11-4.448-2.33-3.252-0.3-0.091-0.28 1.458-0.35 4.527-1.27 7.477 1.63 7.902 6.09 2.091 6.15 8.335-4.02 11.388 1.66 1.26 2.57 0.324 7.04 4.612 6.17 2.514-0.21 0.766 6.52 0.336 2.46zm155-0.57c-2.31-3.7 5.23 3.17 0 0zm-144-0.21c-0.25-2.21-3.283-6.56-2.056-7.48 0.897 1.67 3.776 6.69 2.056 7.48zm2.58-1.79c0.45-4.25 9.11-7.36 6.95-1.53-1.17-6.11-5.99 1.32-6.95 1.53zm21.42-0.67c0.44-2.89 4.97 3.82 0.51 1.18l-0.37-0.53-0.14-0.65zm55.98-0.08c-0.23-3.28-3.11-3.62-4.97-1.33 1.15-5.09 8.5-0.82 6.56 1.92-0.51 0.28-1.59 0.18-1.59-0.59zm32.02-1.25c-2.31-3.7 5.23 3.17 0 0zm-159-0.88c2.209-5.14 2.408 1.92 0 0zm111.6-0.73c-0.32-2.28-9.11-0.05-4.32-1.91 4-0.42 6.8 3.02 10.35 0.77-0.95 1.84-5.01 4.28-6.03 1.14zm-51.6-0.28c1.14-2.46 4.34-1.9 1.1 0.38-0.33 0.77-1.43 0.5-1.1-0.38zm21.02-0.3c-0.16-2.12 2.76-5.51 1.89-1.22 0.17 0.93-1.62 3.34-1.89 1.22zm3.36-0.22c1.45-4.93 8.12-2.46 11.99-3.3 3.08-0.1 6.14-0.54 9.13-1.3-2.9 0.98-5.64 2.31-8.18 3.97-1.89 0.72-9.03 3.3-4.65-0.34 2.66-0.14 4.48-2.22 0.53-1.13-2.13 1.1-5.11 1.28-6.08 0.1 1.29 2.03-2.43 5.07-2.74 2zm-17.62-1.71c1.57-2.26 7.73-1.47 5.69 0.73-1.4-4.42-7.2 2.81-7.72 0.74 0.63-0.55 1.33-1.02 2.03-1.47zm94.24 1.12c2.3-1.82 3.89-0.41 0.65 0.68-0.75 0.53-2.47 0.28-0.65-0.68zm-86-1.26c1.68-3.06 2.69-6.78 4-9.74 3.75 1.89-4.55 8.39 1.78 5.6 2.7-2 2.87 2.35 0.11 1.35-1.77 0.35-4.45 4.21-5.89 2.79zm65.73 0.6c2.6-0.87 4.99 0.94 0.7 0.44 0.13 0.1-1.56-0.16-0.7-0.44zm-24.5-3.92c6.68-4.66-3.83 4.35 0 0zm-58.56-5.66c0.91-3.97 4.76-6.07 7.94-7.63-1.8 1.38-3.29 3.54-3.58 5.36-2.65-0.74-1.8 4.75-4.91 5.81-2.06 2.39-0.3-0.97 0.06-2.22 0.16-0.44 0.32-0.88 0.49-1.32zm45.37 2.89c-1.07-0.51-4.56-0.8-3.96-1.46 2.54-1.09 4.99-2.72 7.75-3.07-2.45 1.26-4.83 3.65-0.46 4.04 5.46 1.5 10.02-3.62 15.27-3.71-5.38 3.53-12.11 6.55-18.6 4.2zm73.71-0.31c2.39-0.88 3.83 1.05 0.38 0.46-0.15 0.22-1.16-0.37-0.38-0.46zm-112.15-2.74c1.41-2.75 6.24-2.66 2.1 0.22-0.68 0.83-3.04 2.1-2.1-0.22zm-32.506-2.6c-1.44-3.07 6.601-5.42 2.156-2.16-0.971 0.01-2.118 5.02-2.156 2.16zm17.906-1.22c-1.4-2.7 5.53-4.18 4.57-2.91-1.46 0.99-4.2 6.48-4.55 3.87l-0.02-0.96zm58 1.26c2.4-1.66 5.8-2.88 7.96-4.52 3.34 3.9-5.29 5.16-7.82 4.91l-0.14-0.39zm164.26 0.24c1.72-0.6 8.1 0.29 3.2 0.43-0.26-0.02-5.46 0.11-3.2-0.43zm-234.34-0.53c-0.882-2.42-0.624-4.31 1.89-2.01 2.554-0.24-1.507-0.85-0.408-2.45-4.514-0.03 0.96-2.2-0.537-4.85 1.232-2.76 2.612-0.84 0.969 1.04 0.629 3.72 8.013-0.99 3.663 2.88-1.979 1.27-1.989 7.11-5.577 5.39zm30.537-1.82c-1.5-3.68 2.7 0.75 0.65 0.85l-0.65-0.85zm147.3 0.36c2.27-0.68 6.51 0.59 1.74 0.46-0.19 0.03-3.61-0.07-1.74-0.46zm-33.68-1.71c1.08-5.51 0.83 4.34 0 0zm-155.08-1.05c0.729-1.81 3.43-0.02 4.056-2.64 4.731-2.81-4.562 7.56-4.056 2.64zm31.5-0.53c0.48-3.64 2.86 3.14 0 0zm-31.342-5c0.697-4.72 0.697 4.72 0 0zm18.842 1.61c2.23-2.88 4.65 0.55 0 0zm-24.999-1.36c1.952-2.05 7.026-0.44 1.91 0.63-0.624 0.11-1.823 0.25-1.91-0.63zm157.19-1.75c0.57-6 0.76 5.26 0 0zm38.81 1.53c3.98-0.24 3.92-6.32 3.58-9.79-1.01 1.42-0.23 5.72-2.09 1.4-1.29-1.99-2.33-6.7 0.54-2.58 4.12 0.76 1.63 6.94 5.74 7.7-0.64 1.92-3.04 1.37-2.36 3.92-1.63 0.41-4.2 0.73-5.41-0.65zm-149.85-3.03c1.18-2.68 3.66-2.24 3.16-5.87 0.06-2.67 2.8-3.49 1.95-0.26-1.38 2.19-2.25 7.06-5.18 9.13-1.05-0.47-0.08-2.2 0.07-3zm114.1-0.5c0.56-7.54 0.7 6.81 0 0zm-150.64 1.08c2.043-4.22 3.224 1.84-0.124 1.05l-0.045-0.42 0.169-0.63zm62.664 0.82c3.62-1.13 2.43 1.96 0 0zm136.61-0.54c1.22-3.57-1.9-3.57-3.88-4.86 1.21-3.76 7.54 6.15 5.44-0.06-1.97-1.26-2.85-4.53-2.94-5.7-1.81 0.68-4.55-2.9-3.13 1.09 0.15 5.81-2.65-3.96-4.83-4.43-1.03-4.35 4.21 5.71 5.49 0.1 2.06-2.07 0.15 3.75 3.19 1.35 1.95-1.16 4.3-2.95 2.86 0.66 3.56 0.92 1.47 6.41 1.24 9.49 3.96 0.44 5.15-4.22 4.86-7.39-0.09-3.29 0.56 0.85 0.84 2.08 1.41 5.37-4.58 8.78-8.98 8.21l-0.16-0.54zm2.12-8.8c-1.69-4.91-3 2.75-0.08 0.36l0.08-0.36zm-192.27 7.82c5.059-2.93-1.999 3.16 0 0zm-24.733-1.27c2.754-3.2 5.09 1.43 0 0zm5.638-1.11c-0.293-4.63 3.871 3.9 0.292 0.58l-0.292-0.58zm255.86 0.5c1.62-2.79 5.67 0.98 1.44 1-0.48 0.02-1.87-0.16-1.44-1zm-270.5-4.92c1.212-3.19 5.026-0.45 0.918 0.44-0.313 0.05-0.915 0.02-0.918-0.44zm186.23-2.08c0.7-7.08 0.61 6.88 0 0zm-9.11 0.23c-1.53-2.11-0.99-4.25 0.82-1.06 1.75 2.68 0.95-5.57 1.84-1.15 0.04 1.58-1.29 5.89-2.66 2.21zm-171-2.11c3.262-4.23 1.137 3.45 0 0zm62.145 0.28c3.62-1.13 2.43 1.96 0 0zm161.39-0.4c1.48-2.22 1.64-4.94 2.04-7.5 0.2 3.03 0.68 6.98-2.69 8.5l0.1-0.26 0.55-0.74zm33.34-0.02c1.71-1.7 4.68-3.76 6.49-4.52 2.07 1.31 1.28 8.15 0.59 2.88-1.48-4.55-5.9 5.29-7.08 1.64zm-142.97-0.48c-0.15-2.11 3.21-4.86 1.35-1.16-0.15 0.28-1.15 2.18-1.35 1.16zm61.69-2.83c-1.04-1.67-0.91-7.07 0.75-2.56 0.62 0.63 0.4 6.24-0.75 2.56zm2.63-2.21c-0.79-6.01 2.69 4.68 0 0zm41.88-1.46c0.7-7.08 0.61 6.88 0 0zm-93.87-1.49c-1.73-0.97-2.76-2.14-4.9-2.84 3.16-3.36 7.83 0.89 5.67 4.22-0.41-0.36-0.55-0.92-0.77-1.38zm0.14-2.51c-6.15-4.16 1.29 3.31 0 0zm-144.46 1.75c0.433-2.57 1.717-4.88 2.729-7.25-0.271 2.79 0.748 6.13-1.057 8.44-0.759 0.26-1.717-0.35-1.672-1.19zm11.955 0.81c2.066-3.61 2.715 1.87 0 0zm113-0.56c1.69-1.51 5.68-0.76 1.53 0.39-0.52 0.3-3.77 1.09-1.53-0.39zm72.65-1.67c-1.83-1.66-1.48-4.62 0.55-1.4 1.48 1.39 2.43 5.36-0.12 1.96l-0.43-0.56zm-192.65-0.19c-1.369-0.59-2.3-1.81 0.048-3.14 2.94-0.4 1.023 5.62-0.048 3.14zm117.73-1.26c5.06-2.93-2 3.16 0 0zm-125.73-5.5c0.651-3.05-0.689-4.63-2.678-2.95 1.495-5.36 4.674 0.07 3.678 3.13-0.646 3.29 1.699 0 2.906-0.78 2.091-2.07-4.348 8.88-3.832 3.18-0.054-0.86-0.073-1.72-0.074-2.58zm142 3.24c1.71-1.98 5.45-0.44 1.52 0.36-0.25-0.11-1.41 0.29-1.52-0.36zm58-3.62c-2.13-4.1 2.16 0.22 1.57 2-0.77-0.4-1.12-1.32-1.57-2zm3.31 0.25c-1.1-2.23-1.42-4.23 0.65-1.1 1.79 1.65 0.72 4.8-0.65 1.1zm-62.31-1.25c2.3-1.8 5.96-0.65 1.5 0.68-0.86 0.5-3.94 0.4-1.5-0.68zm-123.77-4c0.698-7.08 0.607 6.88 0 0zm189.03 0.29c-1.4-1.89-0.73-4.66 0.73-1.29 1.5 1.85 0.6 4.81-0.73 1.29zm77.82 1.29c1.08-5.51 0.83 4.34 0 0zm-146.08-0.67c1.01-2.02 6.42-0.36 2 0.38-0.56 0.08-1.77 0.43-2-0.38zm13 0.18c0.36-2.85 4.42-2.9 1.85 0.02-0.39 0.37-1.71 0.84-1.85-0.02zm129 0.7c0.8-2.31 3.22-6.95 4.69-6.93-1.12 2.49-2.74 5.21-4.69 6.93zm-273.89-6.29c0.255-2.27-0.684-5.69-1.546-1.52 0.183 1.94-0.148 6.04-2.199 2.53-1.432-1.51-2.984-0.06-1.613-3.13 0.69-6.39 1.36-12.84 1.086-19.27-1.399 4.1-1.009 9.57-1.731 14.2 0.486 4.68-3.179 7.87-4.167 1.57-1.815-11.22-1.246-22.69-1.46-34.02 0.316-1.66-0.759-8.9 1.202-4.36 2.038 2.85 0.614 8.34 1.026 12.16 0.012 8.7-0.732 17.55 0.7 26.15 1.592-13.61 1.924-27.43 4.138-40.99-0.057-1.46 2.511-4.64-0.401-3.12 0.727-5.13 1.832-10.36 3.989-15.11 1.908-0.83-0.343 5.53-0.069 7.31-0.207 4.9-1.601 10-0.545 14.81 3.987-0.28 2.581 11.38 3.278 4 1.158-4.36-2.541-7.57-1.023-11.74 0.342-2.46 1.888-9.44 2.476-3.28 0.824 2.93-0.652 6.67 0.191 9.14 1.629-5.86 1.093-12.12 1.885-18.14 0.208-2.4 0.42-4.79 0.63-7.19l-2.418 9c-0.027-6.17-2.339-11.96-5.02-17.43-1.845-2.17-0.325-4.61 1.205-1.39 0.776 3.06 2.603 7.14 5.19 8.37 1.005-11.56 2.444-23.14 2.524-34.76-0.926-1.77 2.628-0.3 1.563-3.23-0.752-2.77 2.907-4.17 1.274-0.69-1.087 6.95-1.54 14.11-0.865 21.12 1.137 4.07 2.524 0.46 1.944-1.31 2.274 1.2 0.394-3.94 2.933-4.82 1.775-2 4.073-8.94 6.264-7.56-3.647 6.81-6.003 14.49-11.337 20.25-1.65 5.05-0.434 10.53-0.689 15.76 0.913 3.37-1.37 7.81-0.912 9.85 3.21 0.02 0.067 3.42-0.907 4.51-1.049 4.68-1.358 9.52-2.713 14.13-1.604 13.51-1.767 27.16-3.541 40.65-0.415 0.14-0.214-1.98-0.342-2.45zm0.437-27.71c-0.397-2.6-0.215-6.83-1.306-8.48-0.366 5.52-0.355 11.34 1.337 16.64 0.635-2.59 0.045-5.49-0.031-8.16zm-10.942-6.52c-1.936 1.48 1.118 4.07 0 0zm213.07 36.06c-1.67-2.52 0.2-4.37 1.01-0.74 0.53 1.06-0.37 1.63-1.01 0.74zm-191.61-7.41c-1.231-2.3 2.243-7.13 2.405-2.66-0.198 2.53-2.587 8.71-2.405 2.66zm19.136 2.58c-0.278-1.96 2.083-9.19 1.464-3.46 0.008 0.61-1.424 6.64-1.464 3.46zm244.36 0.21c3.3-4.45-0.83 3.86 0 0zm-268.56-11.29c0.103-8.75 0.189-17.54 1.412-26.22 0.858-2.91 1.285 5.71 1.458 0.27-0.047-3.45 1.333-10.74 2.634-11.65-1.645 9.08-1.782 18.42-4.333 27.33 3.156 0.76-0.218 7.43 0.476 10.87-0.311 1.74 0.067 8.7-1.269 7.68-0.384-2.74-0.351-5.52-0.378-8.28zm202 8.7c2.21-5.14 2.41 1.92 0 0zm21.61-0.7c-1.19-4.73 0.08-9.8-1.61-14.42-1.92-1.94-0.51 9.56-1.8 4.03-0.66-6.51 0.42-13.35-1.97-19.55 1.15-4.28-2.02-7.02-1.06-11.41 0.95-7.1-1.41-13.92-3-20.72 0.92 0.29 3 7.08 2.8 1.58 0.22-2.61-0.24-6.11 0.69-8.18 2.52 3.51 1.23-5.14 1.51-6.58-0.32-1.96 1.44-7.24 1.48-2.22 0.48 7.93-0.48 15.99 0.96 23.84 2.36 4.78 0.67 10.73 3.97 15.26 0.55 8.73-1.31 17.42-1.34 26.16-0.35 4.48 0.25 8.94 0.33 13.39-0.25 1.08-0.92-1.28-0.96-1.18zm-1.25-17.92c-2.84-5-0.31 5.16 0 0zm0.3-12.77c-1.3 0.16 0.16 6.14 0.21 1.39l-0.06-0.77-0.15-0.62zm-0.92-12.77c-0.41-2.82-0.83-5.64-1.24-8.46-0.19 3.76-1.35 7.67-0.32 11.33 1.12 1.43 0.75 9.88 2.24 4.77 0.05-2.56-0.33-5.11-0.68-7.64zm-3.12 38.04c-1.2-6.64-4.11-12.91-4.22-19.75-0.3-4.9 0.85 3.85 1.3 5.52 0.14 3.61 2.6 0.22 2.49 4.35 0.6 4.26 2.03 9.68 1.32 13.33-0.51-1.08-0.68-2.29-0.89-3.45zm-61.62 1.86c-1.07-1.2-4.02 0.37-1.24-2.4 4.17-4.07 6.18 3.58 1.36 2.88l-0.12-0.48zm-38.75-0.55c1.89-0.75 5.84 0.57 1.75 0.46-0.16 0.02-3.2-0.03-1.75-0.46zm-103.17-1.73c1.084-5.51 0.834 4.34 0 0zm102.92-0.58c1.77-1.46 11.3-1.15 4.87 0.49-0.63 0.13-7.14 1.27-4.87-0.49zm23.56-1.47c2.07-2.15 4.73-1.31 1.17 0.57-1.17 0.98-3.94 1.43-1.17-0.57zm-133.48-0.95c1.084-5.51 0.834 4.34 0 0zm110.36-0.11c1.44-1.8 7.74-1.74 2.7 0.07-1.14 0.69-6.29 2.41-2.7-0.07zm118.56-10.24c0.23-3.71-0.34-8.63 1.13-11.57 0.6 7.24 0.29 14.61-0.6 21.82-0.79-1.51-0.39-7.29-0.53-10.25zm-38 9.36c0.9-2.6 4.93-2.34 1.5-0.23-0.43 0.07-1.08 0.53-1.5 0.23zm-57-1.53c1.22-3.72 3.53 2.28 0 0zm-135.8-2.56c0.566-6 0.758 5.26 0 0zm221.02 1c-0.15-2.12 1.89-10.38 1.51-4.33 0.09 0.7-1.33 7.44-1.51 4.33zm-109.46-1.21c2.27-0.68 6.51 0.59 1.74 0.46-0.19 0.03-3.61-0.07-1.74-0.46zm25.24-0.73c2.07-3.61 2.71 1.87 0 0zm14-1.97c0.9-2.6 4.93-2.34 1.5-0.23-0.43 0.07-1.08 0.53-1.5 0.23zm-149.8-2.09c-0.278-1.96 2.083-9.19 1.464-3.46 0.008 0.61-1.424 6.64-1.464 3.46zm143.8 1.06c2.07-3.61 2.71 1.87 0 0zm6.23-3.13c6.88-4.33-3.66 4.37 0 0zm59.85-5.85c1.08-5.51 0.83 4.34 0 0zm11.25-0.67c-2.26-7.27-1.69-15.04-3.04-22.49-0.12-2.41 2.12 4.05 1.68-0.42 0.01-4.55 1.36-9.13 0.61-13.65-3.53 0.23-1.68 7.5-2.64 10.43-1.57 1.42-1.49-5.66-1.35-7.48 0.55-2.46-0.37-8.74 2.16-8.88-0.14 2.55 2.55 4.53 2.31 0.6 0.22-4.02 4.01-9.13 1.54-12.51-2.32-1.59-4.73-3.05-7.1-4.56 2.13-0.05 6.05 1.92 6.58-1.05 2.96-5.18-0.39 6.17 2.58 1.56 0.13-2.76 0.67-4.25 2.45-1.15 1.09-0.1 2.93-2.07 5.21-0.72-2.85-1.29 0.14-6.01 1.66-1.51 2.82 2.8 1.91-2.14 4.86-0.23-2.19-3.41 5.08-6.97 2.37-1.82-2.35 3.59-1.45 8.58-6.33 9.67-3.94 0.19-11.21 0.06-9.88 5.92-1.26 7.3 5.85 0.72 8.98 0.05 5.45-1.75-0.17 2.37-2.22 3.01-3.91 3.06-9.57 5.95-9.46 11.66-0.63 9.55-1.45 19.16-0.82 28.72 0.5 1.07 2.78 9.8-0.15 4.85zm5.22-4.46c-0.67-1.87-0.34-7.96 0.69-2.76 0.72 1.66 1.03 10.34-0.39 4.53l-0.15-0.84-0.15-0.93zm-22.39 1.55c0.7-4.72 0.7 4.72 0 0zm4.47-2.89c-0.81-2.17-0.18-7.43 0.77-2.4 0.83 1.85 0.48 8.63-0.62 3.26l-0.15-0.86zm-208.6 1.89c-0.261-2.32 3.015-5.95 1.654-1.5-0.138 0.54-1.834 4.17-1.654 1.5zm222.34-1.47c-0.91-1.75 1.74-9.19 1.27-3.47-0.13 0.74 0.22 7.57-1.27 3.47zm-116.81-3c2.07-2.15 4.73-1.31 1.17 0.57-1.17 0.98-3.94 1.43-1.17-0.57zm119.52-3.95c1.08-5.51 0.83 4.34 0 0zm-135.11-1.64c-1.69-2.36-0.11-4.89 0.8-1.16 0.87 2.04 1.11 5.09-0.8 1.16zm-111.81-0.44c0.43-3.95 0.946-8.33 2.544-11.85 0.078 3.44-0.996 10.53-2.544 11.85zm-3.967-4c0.566-6 0.758 5.26 0 0zm251.88-0.92c1.08-5.51 0.83 4.34 0 0zm-110.22-4.3c1.11-1.7 6.35-5.98 6.77-4.05-1.13 0.85-6.69 6.31-6.77 4.05zm-116.24-2.28c-0.114-2.48 3.251-8.93 1.822-2.91-0.523 1.77-1.888 5.24-2.382 6.14 0.186-1.08 0.373-2.15 0.56-3.23zm6.376-2.94c1.224-3.72 3.528 2.28 0 0zm8.918-0.42c1.045-2.03 7.778-5.19 3.094-1.59-0.249 0.12-4.544 3.67-3.094 1.59zm100.29-0.24c-2.39-3.32 5.98-0.12 1.47 0.92-0.59-0.11-1.07-0.5-1.47-0.92zm-103.93-5.01c2.469-0.92 2.953-5.9 4.688-5.82 2.256 4.49-3.06 5.27-4.534 8.73-5.357 2.4-1.943-1.39-0.154-2.91zm97.721 3.03c1.65-2.19 8.91-2.7 3.05-0.59-0.95 0.24-2.08 0.87-3.05 0.59zm-106.96-3.04c1.272-4.99 2.792-9.92 3.695-14.97 2.171-4.36 3.577-9.18 6.092-13.24 1.2-2.42 4.367-4.8 4.751-5.11-0.569-3.72 4.674-5.65 3.339-0.59-2.115 3.12-2.735 7.69-5.481 11.25-1.289 5.7-3.831-2.58-0.692-4.02-0.198-4.52-4.402 4.78-3.566 6.91 0.332 3.68-3.303 4.33-2.619 7.27-3.294 3.16-2.3 9.16-5.378 12.8l-0.141-0.3zm14.961-30.44c-1.54-2.12-2.553 2.88-0.079 0.41l0.079-0.41zm227.84 24.31c-0.05-1.92-0.1-3.83-0.15-5.75-0.46 3.33-0.92 6.67-1.38 10-0.34-6.49 0.35-12.99 2.25-19.21 0.42-1.61 0.14 2.62 0.25 3.56-0.03 5.71 0.42 11.48-0.31 17.15-0.68-1.8-0.51-3.85-0.66-5.75zm-44.76 2.33c1.08-5.51 0.83 4.34 0 0zm5.05-2.56c-0.96-1.7-1.12-7.27 0.28-2.53 0.6 2.73 4.1 1.28 1.71 4.88-0.97 2.44-1.66-1.66-1.99-2.35zm31.87 0.09c1.14-2.46 4.34-1.9 1.1 0.38-0.33 0.77-1.43 0.5-1.1-0.38zm-37.92-0.78c-0.3-2.01-1.77-6.33 0.32-2.25 0.7 0.08 0.11 4.46-0.32 2.25zm-173.87-2.93c-2.239-3.91 4.24 2.47 0.528 0.52l-0.528-0.52zm182.82-1.32c-1.16-1.61-1.07-7.09 0.64-2.5 1.38 2.22 1.32 7.63-0.64 2.5zm-187.95-1.5c1.084-5.51 0.834 4.34 0 0zm-6.079-0.61c1.196-2.35 4.846 0.09 0.918 0.54-0.351 0.07-0.936-0.07-0.918-0.54zm188.7-2.36c-1.77-3.18 2.24-3.27 1.11 0.06-0.33 2.33-0.69 0.93-1.11-0.06zm-182.61-1.11c-0.513-2.43 2.957-6.75 1.537-1.85-0.259 0.81-1.672 5.5-1.537 1.85zm23.184-2.5c-0.21-3.92 0.86-2.12 0.6 0.61-0.33 4.19-0.66 1.17-0.6-0.61zm-10.811-9.07c-1.5-3.68 2.705 0.75 0.649 0.85l-0.649-0.85zm182.21 0.31c0.01-3.01 0.45-9.85 3.96-9.95 1.23 1.83-2.53 1.65-0.96 3.85-3.72 1.88 2.6 5.91-3 6.1zm12.23-2.14c1.45-1.39 3.01-6.22 4-1.75-0.07 2.24-5.64 4.04-5.71 3.46l1.71-1.71zm-198.82-0.52c1.084-5.51 0.834 4.34 0 0zm208.92-1.89c-1.52-1.75-5.24-7.55-1.77-8.47 3.21 1.32 6.46 9.42 1.87 9.21l-0.1-0.74zm0-3.75c-1.54-2.12-2.55 2.88-0.08 0.41l0.08-0.41zm-236.84 2.06c0.697-4.72 0.697 4.72 0 0zm-20.008-7.82c0.2-2.64-0.764-8.82 2.478-8.9 0.299 2.96 1.699 8.77-0.452 10.17-1.008-4.92-1.705 9.12-1.951 1.82-0.032-1.03-0.053-2.06-0.075-3.09zm240.85 4.39c-0.57-1.89-3.85-3.06 0.13-3.79 4-2.18 4.95 2.28 1.33 3.93-0.44 0.44-1.64 1.16-1.46-0.14zm3-2.57c-2.91-4.16-1.12 3.61 0 0zm-236.68-3c-0.178-2.01 0.331-5.89 0.528-1.73 0.366 2.15-0.486 8.56-0.52 2.97l-0.006-0.59-0.002-0.65zm208.69 1.31c-0.59-3.26 1.21-9.14 3.67-8.18 1.01 2.72 2.16 10.78 0.35 10.89-0.67-2.67 0.81-9.65-2.5-5.91 0.92 2.03-0.41 9.68-1.5 4.08l-0.02-0.88zm7.18 1.19c0.57-6 0.76 5.26 0 0zm2.99-0.12c0.11-2.83-1.27-6.63-0.73-8.86 1.98 2.69 1.45 7.27 0.83 9.83l-0.1-0.97zm1.91 1.62c-0.08-2.48 2.02-7.06 2.43-2.02 0.77 1.92-0.46 4.35-0.73 1.08-0.63 0.37-1.94 3.28-1.7 0.94zm-209.09-0.81c0.463-2.77 5.04-3.92 1.5-0.55-0.223 0.14-1.294 1.37-1.5 0.55zm228.03-0.66c0.18-2.66 8.71-0.83 3.72 1.07-1.29 0.23-2.81-0.04-3.72-1.07zm-34.78-3.03c0.56-7.54 0.7 6.81 0 0zm22.48 1.42c2.38-4.44-0.44 5.09 0 0zm10.27-3.6c1.38-3.05 4.4-7.89 6.4-8.95-1.69 2.47-4.67 8.96-6.4 8.95zm6.03 0.12c0.01-2.18 4.64-6.19 2.01-1.83-0.32 0.28-1.49 2.58-2.01 1.83zm6.99-3.02c-0.56-2.21 1.8-8.51 1.34-2.85-0.1 2.2-1.31 10.59-1.34 2.85zm-224.26-0.92c0.625-6.02 2.584 2.25 0.087 2.3-0.347-0.71-0.191-1.55-0.087-2.3zm232.26 0.75c-0.32-2.21 2.5-5.89 1.96-1.5 0.34 1.84-1.35 5.39-1.96 1.5zm-228.2-1.92c0.569-4.7 2.049 2.35-0.178 1.84-0.074-0.62 0.065-1.24 0.178-1.84zm234.24 0.42c-0.91-3.31 3.3-3.2 1.32-0.18-0.71 1.76-1.38 3.5-1.32 0.18zm-243.41-2.25c-0.025-1.73 1.627-7 1.247-2.25 0.166 2.16-2.267 7.73-1.247 2.25zm207.34 2.12c0.34-4.4 3.85-0.37 0.61 1-0.49-0.02-0.62-0.63-0.61-1zm-221.97-0.62c-0.261-2.32 3.015-5.95 1.654-1.5-0.138 0.54-1.834 4.17-1.654 1.5zm9.89-2.75c0.198-5.85 2.081 1.64 0.048 2.94-0.42-0.92-0.11-1.98-0.048-2.94zm8.365-0.75c-0.214-3.84 0.773-2.54 0.6 0.37-0.013 3.92-0.792 2.92-0.6-0.37zm9.924 3c0.245-4.52 4.009 1 2.151 0.64-0.566-2.72-2.817 2.76-2.151-0.64zm199.81 0.31c-0.1-3.32 3.6-2.77 0.98 0.19-0.43 1.14-1.25 1.18-0.98-0.19zm20.21-1.81c0.7-7.08 0.61 6.88 0 0zm-227-3c0.698-7.08 0.607 6.88 0 0zm180.42-2c-0.18-2.66 3.01-7.03 2.23-1.76-0.05 1.69-3.77 8.01-2.23 1.76zm-206.86-1c0.04-2.35 1.413-4.24 1.205-0.6 0.419 2.68-1.642 6.25-1.205 0.6zm212.21-0.44c-0.39-2.36 0.89-5.24 1.16-1.03 0.72 2.12-0.87 6.47-1.14 1.73l-0.02-0.7zm7.19 0.94c0.03-1.89 0.79-8.25 1.58-7.17 0.18 2.34 0.02 8.96-1.57 8.64l-0.02-0.63 0.01-0.84zm-215.08-0.5c-0.599-2.48 2.859-7.57 1.475-2.21-0.293 0.85-1.543 6.53-1.437 3.35-0.012-0.38-0.025-0.76-0.038-1.14zm2.885-0.44c-0.431-2.82 2.043-3.87 1.206-0.51-0.174 2.26-1.384 4.53-1.206 0.51zm209.16-1.18c-0.17-3.32-0.66-6.6-1.15-9.88 1.57 4.15 2.22 8.62 1.31 13-0.05-1.04-0.11-2.08-0.16-3.12zm12.84-0.44c0.81-4.75 3.58 3.93 0.29 1.46l-0.21-0.66-0.08-0.8zm3.15-1.63c-0.81-2.16 1.54-7.47 2.14-2.77 3.26 0.68 1.12 9.81 0.28 3.43 0.78-4.17-2.58 0.25-2.21 1.92-0.18-0.85-0.16-1.72-0.21-2.58zm31.39-0.09c-1.11-1.74 1.06-10.82 1.35-4.91-0.21 1.85 0.73 8.55-0.73 7.87-0.28-0.97-0.45-1.97-0.62-2.96zm4.73-1.22c-0.21-3.92 0.86-2.12 0.6 0.61-0.33 4.19-0.66 1.17-0.6-0.61zm-70.25 1.25c-0.29-3.73 3.67-1.6 0.98 0.75-0.7 1.62-1.22 0.17-0.98-0.75zm5.1 0.58c-0.15-1.97-1.93-7.09 0.28-2.72 0.86 0.38-0.15 6.1-0.28 2.72zm38.96-0.25c1.08-5.51 0.83 4.34 0 0zm-17.78-4.58c-0.28-2.82 0.58-4.37 0.58-0.74 0.29 1.96-0.61 6.12-0.57 1.79l-0.01-1.05zm21.39 2.25c-0.99-1.97 1.25-5.93 1.29-1.75 0.45 2.51-0.66 6.51-1.29 1.75zm14.61-2.25c-0.28-2.82 0.58-4.37 0.58-0.74 0.29 1.96-0.61 6.12-0.57 1.79l-0.01-1.05zm-10.07 1c0.7-7.08 0.61 6.88 0 0zm-22.48-0.88c-1.19-1.95-0.78-10.18 0.97-4.42 0.34 2.6-0.09 5.2-0.22 7.8-0.25-1.12-0.5-2.25-0.75-3.38zm7.25-2.39c-0.64-2.56 2.63-4.79 1.4-1.06-0.15 1.82-1.72 4.83-1.4 1.06zm-234.8-1.23c0.566-6 0.758 5.26 0 0zm-7.056-1.76c-1.239-1.74-1.155-8.12 0.787-3.25 1.415 2.03 0.833 9.09-0.787 3.25zm12.093 0.26c0.698-7.08 0.607 6.88 0 0zm215.85 1.58c1.08-5.51 0.83 4.34 0 0zm-9.96-1.27c0.16-1.57-3.94-6.9-0.55-3.51 1.46 0.56 1.14 7.49 0.55 3.51zm-200.9-1.81c-0.125-2.36 0.886-6.44 1.581-7.73 0.153 3.65-0.588 7.24-1.562 10.73-0.007-1-0.013-2-0.019-3zm4.513 0.42c2.383-4.44-0.444 5.09 0 0zm58.459-1.42c0.57-6 0.76 5.26 0 0zm-4.11-0.92c1.08-5.51 0.83 4.34 0 0zm-67.885-2.08c0.566-6 0.758 5.26 0 0zm248.36 1.25c-0.07-3.41-3.11-10.17 0.43-11.64 1.78 1.33 3.68 4.65 2.47 0.4 2.25 0.83 2.47 7.8 2.58 11.02-1.43-0.14-2.11-5.52-4.12-7.36-1.39-2.83-0.93-0.47-0.67 1.3 0.12 2.17 1.45 7.26-0.34 7.21l-0.35-0.93zm-36.88-0.42c-1.39-2.28-0.22-6.06 0.73-1.58 0.29 0.7 0.74 3.06-0.73 1.58zm49.49-1.33c0.7-4.72 0.7 4.72 0 0zm-173.66 0c-0.59-3.03 4.43 2.07 0.73 0.71l-0.73-0.71zm141.58-0.42c1.08-5.51 0.83 4.34 0 0zm13.19-4.61c-0.59-2.85 1.76-5.54 1.71-1.22 0.7 2.51-1.66 7.12-1.69 2.01l-0.02-0.79zm-35.19 1.61c1.08-5.51 0.83 4.34 0 0zm59.16-1.34c-2.85-4.74 3.51 1.45 1 1.59-0.44-0.46-0.73-1.02-1-1.59zm-48.63-0.74c0.1-2.16 1.87-5.13 1.29-1.05-0.01 2.01-2.48 4.71-1.29 1.05zm43.01 0.96c-2.11-4.41 2.13-0.51 0.86 1.21-0.47-0.22-0.65-0.77-0.86-1.21zm-37.54-1.88c1.08-5.51 0.83 4.34 0 0zm-151.08-44.04c1.39-2.48 5.6-2.28 2.08 0.18-0.58 0.27-1.93 0.8-2.08-0.18zm-3-2.42c1.08-2.27 5.59-1.87 1.92 0.4-0.53 0.58-2.02 0.73-1.92-0.4zm-9.4-0.98c-0.58-4.02 5.62-2.61 7.48-5.24 3.12 0.64 8.29-4.73 2.62-4.18-1.86 1.25-4.37 4.64-3.21 0.03 1.58-1.86 9.08-3.44 4.34-6.94-0.49-3.85 2.74-10.54 7.58-8.5 3.94 1.45 7.82 4.05 11.31 5.43 1.08 3.36 5.86 1.39 6.98 1.3-0.04 3.68 6.75 1.47 3.27 5.31-3.18 2.13-12.01-0.41-8.94 6.14 0.81-2.9 7.23-5.79 6.49-0.67-1.72 1.61-2.92 2.85-4.08 4.56-1.22 0.27-1.44-2.24-3 0.28-1.1 3.63-5.39-3.96-0.62-2.97 0.16-2.63-4.3-2.67-4.58-0.04-3.83-0.33-7.6 0.31-8.74 4.35-2.26 2.46-3.1-3.72-1.06-3.19 0.2-2.19-2.62-3.96-2.13-1.1-1.58 0.25-3.33 0.35-2.79 2.16-3.88-1.02-8.79 0.96-10.49 3.86l-0.43-0.59zm29.79-9.72c0.45-3.95-4.53 3.05-0.71 1.11l0.4-0.5 0.31-0.61zm-1.83-4.24c-1.46-3.07-10.22-9.61-10.93-3.46-0.63 4.2 6.17 4.86 8.66 7.56 1.94 0.03 2.83-2.52 2.27-4.1zm-9.56 13.88c1.22-3.72 3.53 2.28 0 0zm28.4-1.23c0.93-2.82 5.34 2.03 0.8 0.59l-0.48-0.26-0.32-0.33zm1.87-3.43c3.62-1.13 2.43 1.96 0 0zm-2-6c3.62-1.13 2.43 1.96 0 0zm8.73-0.33c0.76-3.01 8.01-1.29 2.39-0.94-0.18 0.68 4.37 2.03 0.36 1.8-0.85-0.1-2.31 0.11-2.75-0.86zm-12.84-4.07c0.7-4.72 0.7 4.72 0 0zm13.34-2c-0.59-3.03 4.43 2.07 0.73 0.71l-0.73-0.71zm-13.99-6.99c0.12-2.01 4.67 2.2 0.7 0.7l-0.7-0.7zm1.22-3.13c5.06-2.928-2 3.16 0 0zm-4.03-1.82c0.18-5.088-3.65 1.33-5.44-0.481 1.5-4.576 9.88-2.936 6.72 1.801-1.28 1.08-1.75-0.22-1.28-1.32zm-18.62-1.477c1.08-5.51 0.83 4.337 0 0zm2 0c1.08-5.51 0.83 4.337 0 0zm2 0c1.08-5.51 0.83 4.337 0 0zm15.92-9.032c-0.29-1.967-4.36-1.661-0.66-2.971 4.96-3.204 6.51-9.461 8.4-14.704 1.84-6.459 3.15-13.278 7.21-18.812 1.73-3.545 3.23-7.239 5.94-10.191 0.32 0.672-1.21 5.276-2.07 6.883-3.21 6.347-7.42 12.488-8.29 19.7-1.27 4.734-4.31 8.85-5.49 13.558 3.3 0.395 6.28-6.986 8.87-5.534 0.02 2.767-0.86 5.421-1.71 8.02-0.07-1.9-0.54-6.083-1.2-1.5-0.93 4.817-0.53 0.155-1.36-1.734-2.38 2.598-6.52 8.392-9.64 7.285zm14-15.024c1.34-4.669 5.19-7.964 6.85-12.472 3.84-7.288 9.61-13.26 15.08-19.32 1.73-1.739-3.51-2.948 0.57-2.169 2.63 1.548 2.81-2.448 2.6-3.504-4.38 0.767-2.92-3.253 0.51-2.859 2.79 1.794 4.25-3.72 0.42-1.584-1.83 0.386 4.26-2.447 2.65-4.986 1.05-2.656-1.78-10.513-3.53-4.708-3.56 6.347-9.74 10.769-13.6 16.845-5.09 2.437 2.43-5.052 3.65-6.552 3.69-3.717 6.81-7.955 9.51-12.416 4.44-5.277 7.54 2.341 6.27 6.534 0.32 3.523-1.22 7.474-1.23 10.502 5.27-1.606-2.76 3.454-3.94 4.38-8.83 6.803-16.16 15.754-20.41 26.1-2.68 1.417-2.26 6.067-5.4 6.209zm35-12.527c1.69-1.509 5.68-0.756 1.53 0.388-0.52 0.3-3.77 1.095-1.53-0.388zm-9.5-35c3.43-3.467 1.54 2.781-0.16 0.388l0.16-0.388z"/>
  <metadata>
    <rdf:RDF>
      <cc:Work>
        <dc:format>image/svg+xml</dc:format>
        <dc:type rdf:resource="http://purl.org/dc/dcmitype/StillImage"/>
        <cc:license rdf:resource="http://creativecommons.org/licenses/publicdomain/"/>
        <dc:publisher>
          <cc:Agent rdf:about="http://openclipart.org/">
            <dc:title>Openclipart</dc:title>
          </cc:Agent>
        </dc:publisher>
        <dc:title>Alice In Wonderland - 2 - the white rabbit</dc:title>
        <dc:date>2006-10-26T16:26:48</dc:date>
        <dc:description>This image is one of a collection of 42 images that were the illistrations for the inital release of Alice in Wonderland by Lewis Carrol. </dc:description>
        <dc:source>https://openclipart.org/detail/945/alice-in-wonderland---2---the-white-rabbit-by-ryanlerch</dc:source>
        <dc:creator>
          <cc:Agent>
            <dc:title>ryanlerch</dc:title>
          </cc:Agent>
        </dc:creator>
        <dc:subject>
          <rdf:Bag>
            <rdf:li>alice in wonderland</rdf:li>
            <rdf:li>john tenniel</rdf:li>
            <rdf:li>literature</rdf:li>
            <rdf:li>pocket</rdf:li>
            <rdf:li>pocket watch</rdf:li>
            <rdf:li>rabbit</rdf:li>
            <rdf:li>watch</rdf:li>
            <rdf:li>white rabbit</rdf:li>
          </rdf:Bag>
        </dc:subject>
      </cc:Work>
      <cc:License rdf:about="http://creativecommons.org/licenses/publicdomain/">
        <cc:permits rdf:resource="http://creativecommons.org/ns#Reproduction"/>
        <cc:permits rdf:resource="http://creativecommons.org/ns#Distribution"/>
        <cc:permits rdf:resource="http://creativecommons.org/ns#DerivativeWorks"/>
      </cc:License>
    </rdf:RDF>
  </metadata>
</svg>
